<?xml version="1.0" encoding="utf-8"?>
<!-- Generator: Adobe Illustrator 24.0.0, SVG Export Plug-In . SVG Version: 6.00 Build 0)  -->
<svg version="1.1" id="Layer_1" xmlns="http://www.w3.org/2000/svg" xmlns:xlink="http://www.w3.org/1999/xlink" x="0px" y="0px"
	 viewBox="0 0 300 300" style="enable-background:new 0 0 300 300;" xml:space="preserve">
<style type="text/css">
	.st0{fill:#F1E9E1;}
	.st1{fill:#FFB2B8;}
	.st2{fill:#CE6F7B;}
	.st3{fill:#C69A69;}
	.st4{fill:#42210B;}
	.st5{fill:#FEFDFD;}
	.st6{opacity:0.5;fill:#C69A69;}
	.st7{opacity:0.5;}
	.st8{fill:#FFBFA6;}
	.st9{opacity:0.3;fill:#FF703C;}
	.st10{fill:#C6B8AB;}
	.st11{fill:#C2CFD8;}
	.st12{fill:#CCCCCC;}
	.st13{opacity:0.57;fill:#FFB2B8;}
	.st14{fill:#FFFFFF;}
	.st15{fill:#7C1D1B;}
	.st16{fill:#603813;}
	.st17{fill:#FCF8ED;}
	.st18{fill:#C69C6D;}
	.st19{fill:#1B1464;}
	.st20{fill:#FAF3E2;}
	.st21{fill:#FFADB5;}
	.st22{fill:#FF0000;}
	.st23{fill:#DFC2A9;}
	.st24{fill:#9099A8;}
	.st25{fill:#C33C24;}
	.st26{fill:#F76E76;}
	.st27{fill:#FDF7F4;}
	.st28{opacity:0.7;}
	.st29{fill:#703C24;}
	.st30{fill:none;}
</style>
<g>
	<ellipse class="st0" cx="158.5" cy="273" rx="113.8" ry="26.9"/>
	<g>
		<g>
			<g>
				<path class="st1" d="M90.3,256.3c0,0-20.8-4.8-26.9-21c-5-13.3,0.5-22,4-30c4.2-9.9,6.2-23.5-7.9-24.9
					c-4.8-0.5-15.3,2.8-15.3,4.8c0,2,17.3-5.3,20.1,5.4c2.9,10.8-11.5,19-9.3,40s20.3,32.5,39,36.5L90.3,256.3z"/>
				<path class="st2" d="M94,267.6C94,267.6,93.9,267.5,94,267.6c-22.8-4.8-37.5-18.6-39.5-36.9c-1.3-11.7,2.7-19.6,5.9-26
					c2.6-5.2,4.7-9.3,3.4-13.9c-1.9-7.1-10.6-5.8-15.8-5c-2.4,0.4-3.5,0.5-4,0.1c-0.2-0.1-0.3-0.3-0.3-0.6c0-0.4,0.2-0.8,0.7-1.2
					c2.2-2,10.7-4.5,15.1-4.1c4.7,0.5,7.9,2.3,9.8,5.4c3.8,6.3,0.2,16.2-1.5,20.2c-0.4,1-0.9,2-1.4,3.1c-3.2,7.1-6.9,15.1-2.6,26.6
					c5.9,15.8,26.4,20.6,26.6,20.7c0.2,0,0.3,0.2,0.3,0.3l3.7,10.8c0.1,0.2,0,0.3-0.1,0.5C94.3,267.5,94.1,267.6,94,267.6z
					 M54.4,184.2c4.4,0,8.9,1.2,10.3,6.3c1.3,5-0.9,9.4-3.5,14.6c-3.1,6.2-7,14-5.8,25.5c1.9,17.7,16,31,37.8,35.9l-3.3-9.7
					c-2.4-0.6-21.2-5.9-27-21.2c-4.4-11.8-0.7-20.1,2.6-27.3c0.5-1,0.9-2.1,1.4-3.1c1.6-3.8,5.1-13.4,1.5-19.4
					c-1.7-2.8-4.7-4.5-9.1-4.9c-4.1-0.4-12.4,2.1-14.4,3.9c-0.2,0.2-0.3,0.3-0.3,0.4c0.5,0.1,1.9-0.1,3.2-0.3
					C49.7,184.6,52,184.2,54.4,184.2z"/>
			</g>
			<path class="st1" d="M90.3,256.3c0,0-2.8-0.6-6.6-2.3c0.1,0.8,0.1,1.7-0.1,2.5c-0.2,0.9-0.9,2.1-2,2.2c-0.7,0.1-1.4-0.2-2-0.5
				c-0.8-0.3-1.5-0.7-2.3-1c-1.7-0.9-3.4-1.8-5-2.9c-1.9-1.4-3.8-3-5.3-4.8c-1.6-1.9-3-4.2-4.2-6.4c-2.3-4.2-3.8-8.8-4.4-13.6
				c-0.5-4.7,0-9.5,1.4-14.1c1.5-4.9,4.2-9.3,5.7-14.2c0.7-2.4,1.2-4.8,1.3-7.3c0.1-1.8,0-3.7-0.6-5.5c-0.7-2.2-1.8-4.5-1.8-6.8
				c-1.4-0.6-3.1-1.1-5.1-1.3c-4.8-0.5-15.3,2.8-15.3,4.8c0,2,17.3-5.3,20.1,5.4c2.9,10.8-11.5,19-9.3,40c2.3,21,20.3,32.5,39,36.5
				L90.3,256.3z"/>
			<g>
				<path class="st2" d="M80.6,263.1c-0.1,0-0.3-0.1-0.4-0.2c-0.1-0.1-1.8-2.2-1.5-5c0.2-1.8,1.2-3.4,3.1-4.8
					c0.2-0.2,0.5-0.1,0.7,0.1c0.2,0.2,0.1,0.5-0.1,0.7c-1.6,1.2-2.5,2.7-2.7,4.2c-0.3,2.4,1.3,4.3,1.3,4.3c0.2,0.2,0.1,0.5-0.1,0.7
					C80.8,263.1,80.7,263.1,80.6,263.1z"/>
				<path class="st2" d="M70,256.7c-0.2,0-0.4-0.2-0.5-0.4c0-0.1-0.6-5.3,4.6-7.3c0.2-0.1,0.5,0,0.6,0.3c0.1,0.2,0,0.5-0.3,0.6
					c-4.5,1.7-4,6.1-4,6.3C70.5,256.5,70.4,256.7,70,256.7C70.1,256.7,70.1,256.7,70,256.7z"/>
				<path class="st2" d="M62.6,249.9c-0.2,0-0.4-0.2-0.5-0.4c0-0.1-0.5-2.9,1.2-4.9c1-1.2,2.5-1.9,4.6-1.9c0,0,0,0,0,0
					c0.3,0,0.5,0.2,0.5,0.5c0,0.3-0.2,0.5-0.5,0.5c-1.7,0-3,0.6-3.9,1.6c-1.4,1.7-1,4.2-1,4.2C63.1,249.6,63,249.9,62.6,249.9
					C62.7,249.9,62.7,249.9,62.6,249.9z"/>
				<path class="st2" d="M56.8,239.4c0,0-0.1,0-0.1,0c-0.3-0.1-0.4-0.3-0.3-0.6c0-0.1,1.3-5,7.2-3.9c0.3,0,0.4,0.3,0.4,0.5
					c0,0.3-0.3,0.4-0.5,0.4c-5-1-6.1,3-6.1,3.2C57.2,239.2,57,239.4,56.8,239.4z"/>
				<path class="st2" d="M54.8,228c-0.1,0-0.2,0-0.3-0.1c-0.2-0.2-0.2-0.5,0-0.7c0,0,3.2-3.2,7-1c0.2,0.1,0.3,0.4,0.2,0.6
					c-0.1,0.2-0.4,0.3-0.6,0.2c-3.1-1.8-5.7,0.7-5.8,0.9C55,228,54.9,228,54.8,228z"/>
				<path class="st2" d="M62.1,218.9c-0.1,0-0.2,0-0.3-0.1c-1-1-2-1.6-3.1-1.6c-1.5,0-2.6,1.1-2.7,1.1c-0.2,0.2-0.5,0.2-0.7,0
					c-0.2-0.2-0.2-0.5,0-0.7c0.1-0.1,1.4-1.4,3.3-1.4c0,0,0,0,0,0c1.3,0,2.6,0.6,3.7,1.9c0.2,0.2,0.2,0.5,0,0.7
					C62.3,218.9,62.2,218.9,62.1,218.9z"/>
				<path class="st2" d="M65.5,210.1c-0.1,0-0.3-0.1-0.4-0.2c-1-1.2-2-1.8-3.1-1.9c-1.5-0.1-2.6,0.9-2.7,0.9c-0.2,0.2-0.5,0.2-0.7,0
					c-0.2-0.2-0.2-0.5,0-0.7c0.1-0.1,1.4-1.2,3.3-1.1c1.4,0.1,2.7,0.9,3.8,2.2c0.2,0.2,0.1,0.5-0.1,0.7
					C65.7,210,65.6,210.1,65.5,210.1z"/>
				<path class="st2" d="M68.9,200.9c-0.2,0-0.3-0.1-0.4-0.2c-0.5-0.7-1.1-1.2-1.9-1.3c-1.6-0.3-3.2,0.8-3.2,0.8
					c-0.2,0.1-0.5,0.1-0.6-0.1c-0.1-0.2-0.1-0.5,0.1-0.6c0.1-0.1,2-1.3,3.9-0.9c1,0.2,1.8,0.8,2.5,1.7c0.1,0.2,0.1,0.5-0.1,0.6
					C69.1,200.9,69,200.9,68.9,200.9z"/>
				<path class="st2" d="M64.5,192.4c-0.1,0-0.2,0-0.3-0.1c-0.2-0.1-0.3-0.4-0.1-0.6c0,0,2.6-3.6,6.5-0.9c0.2,0.1,0.3,0.4,0.1,0.6
					c-0.1,0.2-0.4,0.3-0.6,0.1c-3.1-2.2-5.1,0.5-5.2,0.7C64.8,192.3,64.7,192.4,64.5,192.4z"/>
				<path class="st2" d="M60.2,186.2C60.2,186.2,60.1,186.2,60.2,186.2c-0.3,0-0.5-0.3-0.5-0.5c0-0.1,0.3-2.3,1.9-3.5
					c0.9-0.7,2-0.9,3.3-0.7c0.3,0,0.4,0.3,0.4,0.5c0,0.3-0.3,0.4-0.5,0.4c-1-0.2-1.9,0-2.6,0.5c-1.3,1-1.6,2.8-1.6,2.8
					C60.6,186,60.4,186.2,60.2,186.2z"/>
				<path class="st2" d="M52.9,185c-0.2,0-0.3-0.1-0.4-0.2c0-0.1-0.7-1.3-0.4-2.6c0.2-0.7,0.7-1.3,1.4-1.7c0.2-0.1,0.5,0,0.6,0.2
					c0.1,0.2,0,0.5-0.2,0.6c-0.5,0.3-0.8,0.6-1,1.1c-0.3,0.9,0.3,1.8,0.3,1.8c0.1,0.2,0,0.5-0.2,0.6C53.1,184.9,53,185,52.9,185z"/>
			</g>
		</g>
		<g>
			<path class="st3" d="M116.8,177.2c0,0-16.7,28.6-23.5,40.2c-6.8,11.6-16.7,47.5,14.6,63.2c18.4,6.5,36.5,2.2,62.4,0.8
				c25.9-1.4,35.9-1.1,41.9,0.5c10-12.2,24.3-30,13.5-42.9c-7-7.6-17.3,2.2-19.4,8.1c0.8-18.1-2.7-59.4-10.3-73.7
				C182.7,178.6,150.2,184.2,116.8,177.2z"/>
			<path class="st4" d="M130.5,284.8c-7.9,0-15.3-0.9-22.8-3.5c-10.4-5.2-17.3-13-20.3-23.2c-4.6-15.4,0.7-32.9,5.3-41
				c6.8-11.6,23.5-40.2,23.5-40.2c0.2-0.3,0.5-0.4,0.7-0.3c32.9,6.9,65.1,1.5,78.7-3.7c0.3-0.1,0.7,0,0.9,0.3
				c4.6,8.7,7.2,26.1,8.3,35.7c1.5,12.3,2.3,25.7,2.1,35.3c2.3-3.5,6.3-7.4,10.8-8.3c3.1-0.6,6,0.3,8.3,2.8
				c11.4,13.6-4.2,32.6-13.5,43.9c-0.2,0.2-0.5,0.3-0.7,0.2c-6.1-1.7-17-1.8-41.6-0.5c-6.5,0.3-12.5,0.9-18.2,1.4
				C144.2,284.2,137.1,284.8,130.5,284.8z M117.1,178c-2.1,3.6-17,29-23.2,39.8c-4.5,7.8-9.7,24.9-5.2,39.9
				c2.9,9.8,9.5,17.3,19.5,22.3c13.5,4.8,26.8,3.6,43.7,2.1c5.8-0.5,11.7-1,18.3-1.4c24.5-1.3,35.2-1.2,41.6,0.4
				c9.6-11.7,23.7-29.1,13.2-41.7c-1.9-2.1-4.3-2.9-7-2.3c-5.2,1.1-10,6.7-11.3,10.2c-0.1,0.3-0.5,0.5-0.8,0.4
				c-0.3-0.1-0.6-0.4-0.6-0.7c0.8-16.9-2.5-58-9.9-72.8C181.5,179.6,149.7,184.7,117.1,178z"/>
		</g>
		<g>
			<path class="st5" d="M167.5,280.6c23.5-0.3,34.3-25.7,27-51.8c-5-18-10.9-39.5-14.1-51.2c-6.5,1.3-14.2,2.2-22.5,2.7
				c-4.9,12.6-16.9,45.9-18.7,60.9C137,259.9,144,280.9,167.5,280.6z"/>
		</g>
		<path class="st6" d="M228.2,254.2c-3.5,4.3-8.6,6.7-13.9,8.1c-3.2,0.8-6.3,1.6-8.9,3.7c-2.1,1.7-3.8,3.8-5.8,5.7
			c-1.2,1.1-2.4,2.3-3.8,3.2c-1.3,0.8-2.7,1.4-4.2,1.8c-3.3,0.9-6.7,1.2-10.1,1.3c-3.3,0.1-6.7,0-10,0.3c-3.4,0.4-6.7,0.8-10.1,1
			c-3.4,0.2-7,0.1-10.3-0.7c-3.4-0.8-6.1-2.5-8.7-4.7c-2.2-1.8-4.2-4-6.7-5.3c-3.5-1.9-7.4-2-11.2-1.8c-3.9,0.3-8.3,0.9-11.9-0.9
			c-2.6-1.3-4.7-3.5-6.2-6c-2.8-4.6-3.8-10.5-3.1-15.8c-1.7,2.3-3.1,4.8-3.9,7.5c-0.9,3.1-1.1,6.3-0.5,9.5c0.1,0.3-0.3,0.8-0.7,0.6
			c-1.3-0.6-2.4-1.6-3.2-2.7c-1.8-2.6-2.3-5.9-2.2-9c0-3.7,0.8-7.4,1.7-10.9c0.9-3.3,2-6.6,3.3-9.9c0.5-1.4,1.1-2.8,1.6-4.2
			c0.7-1.9,1.3-3.9,2.1-5.8c0.4-1,1-2.5,2.1-3c1.1-0.5,2,0.6,2.5,1.4c1.2,1.9,1.9,4.1,2.9,6.2c0.9,1.8,1.9,3.5,3.2,5
			c2.4,2.9,5.7,4.7,9.4,5.4c4.7,0.9,9.5,0.1,14-1.5c4.3-1.6,8.1-4.1,11.7-7c1.9-1.5,3.7-3.1,5.6-4.5c1.7-1.2,3.5-2.3,5.3-3.4
			c3.5-2.1,7.4-4.5,9-8.4c0.5-1.3,0.6-2.6,0.5-3.9c-0.1-1.7-0.3-3.5-0.5-5.2c-0.2-1.7-0.3-3.4-0.2-5.1c0-1.3,0.2-2.7,0.9-3.8
			c1.2-1.7,4.1-1.9,5.2,0c0.6,1,0.7,2.2,0.8,3.3c0.1,1.4,0,2.8-0.2,4.2c-0.2,2.1-0.8,4.2-0.9,6.3c-0.1,1.9,0.1,4,1.1,5.7
			c0.8,1.3,2,2.2,3.3,2.9c1.6,0.8,3.3,1.5,4.9,2.2c1.9,0.9,3.6,1.9,5.3,3.1c3.5,2.5,6.6,5.4,10.3,7.6c2.6,1.5,5.3,2.4,8.1,2.5
			c-1.1-19.8-4.4-45.1-10-55.7c-13.2,5.1-45.6,10.8-79.1,3.8c0,0-16.7,28.6-23.5,40.2c-6.8,11.6-16.7,47.5,14.6,63.2
			c18.4,6.5,36.5,2.2,62.4,0.8c25.9-1.4,35.9-1.1,41.9,0.5c6.7-8.2,15.4-18.9,17.1-29C228.9,253.4,228.6,253.8,228.2,254.2z"/>
		<g>
			<path class="st4" d="M199.9,262.2c1-3.2,2.1-6.2,3.4-9.2c0.7-1.5,1.3-3,2.1-4.5c0.7-1.5,1.5-2.9,2.4-4.3
				c-0.4,1.6-0.8,3.2-1.4,4.7c-0.5,1.6-1.1,3.1-1.8,4.6c-0.7,1.5-1.3,3-2.1,4.4C201.7,259.4,200.9,260.9,199.9,262.2z"/>
			<path class="st4" d="M109.1,280.5c-2.5-2.8-4.7-5.8-6.6-9.1c-1.8-3.3-3.2-6.8-4.1-10.5c-0.8-3.7-0.9-7.7,0.3-11.4
				c0.6-1.8,1.5-3.6,2.8-5.1c1.3-1.5,2.8-2.8,4.6-3.6c1.8-0.8,3.6-1.4,5.6-1.6c2-0.1,4,0.3,5.7,1.1c3.6,1.6,6.5,4.2,9,7
				c4.9,5.7,8.6,12.3,11.5,19.2c-1.7-3.3-3.5-6.6-5.6-9.7c-2-3.1-4.2-6.1-6.8-8.8c-2.5-2.7-5.3-5.2-8.7-6.5c-1.7-0.7-3.4-1-5.2-0.9
				c-1.7,0.1-3.5,0.7-5.1,1.5c-3.2,1.5-5.7,4.5-6.8,7.9c-1.1,3.4-1.1,7.2-0.4,10.8c0.7,3.6,1.9,7.1,3.6,10.4
				C104.8,274.4,106.9,277.5,109.1,280.5z"/>
		</g>
		<g>
			<path class="st1" d="M116.4,287.1c0,0,3.5,7.2,9.1-0.2c3.9,2.5,8.2,1.6,8.9-1.6c4.5,1.4,6.4-3.3,3.5-8
				c-2.9-4.7-14.7-8.4-24.3-0.6C105.8,283.1,110,289.7,116.4,287.1z"/>
			<path class="st2" d="M120.5,290.7c-0.1,0-0.2,0-0.4,0c-2.1-0.2-3.5-2.2-4-3c-2.8,1-5.4,0.4-6.6-1.6c-1.3-2-1.1-5.8,3.6-9.9
				c6.3-5.1,12.8-4.9,16.1-4.3c4,0.7,7.5,2.6,9,5.1c1.7,2.8,1.9,5.9,0.5,7.7c-0.9,1.2-2.4,1.6-4.1,1.2c-0.4,1.1-1.2,2-2.3,2.5
				c-1.9,0.8-4.5,0.5-6.8-0.8C123.9,289.6,122.2,290.7,120.5,290.7z M116.4,286.6c0.2,0,0.3,0.1,0.4,0.3c0,0,1.3,2.7,3.5,2.9
				c1.5,0.1,3.1-0.9,4.8-3.2c0.1-0.2,0.4-0.2,0.6-0.1c2.2,1.4,4.6,1.7,6.3,1c1-0.4,1.7-1.3,1.9-2.3c0-0.1,0.1-0.2,0.2-0.3
				c0.1-0.1,0.3-0.1,0.4,0c1.5,0.5,2.8,0.2,3.6-0.7c1-1.2,1.2-3.8-0.6-6.6c-1.3-2.2-4.6-4-8.3-4.6c-3.1-0.5-9.3-0.7-15.3,4.1
				c-4.2,3.7-4.5,7-3.4,8.7c1,1.7,3.3,2.1,5.8,1C116.2,286.6,116.3,286.6,116.4,286.6z"/>
		</g>
		<path class="st1" d="M136.9,280.6c-0.8,0.3-1.6-0.2-2.2-0.7c-0.2,0.7-0.6,1.2-1.2,1.7c-2.4,2-7.3,1.9-8.7-1.2
			c-0.3,0.5-0.8,1-1.3,1.3c-1.4,0.9-3.4,1.2-5,0.7c-1.2-0.4-2-1.3-2.2-2.4c-0.4,0.5-0.8,1-1.4,1.2c-1.6,0.8-3.6,0.2-4.5-1.2
			c-3.1,5.2,0.6,9.2,5.9,7c0,0,3.5,7.2,9.1-0.2c3.9,2.5,8.2,1.6,8.9-1.6c4.1,1.3,6-2.4,4.2-6.7C138.2,279.3,137.8,280.3,136.9,280.6
			z"/>
		<g>
			<path class="st2" d="M119.3,276.8c-1.2,1.5-2.3,3.1-2.8,4.8c-0.3,0.9-0.4,1.8-0.4,2.7c0,0.9,0.1,1.8,0.3,2.8
				c-0.5-0.8-0.9-1.8-1-2.8c-0.2-1-0.1-2,0.2-3c0.3-1,0.8-1.9,1.4-2.7C117.6,277.9,118.4,277.2,119.3,276.8z"/>
			<path class="st2" d="M126.4,277c-0.8,1.6-1.4,3.2-1.5,4.9c-0.1,0.8-0.1,1.7,0,2.5c0.1,0.8,0.3,1.7,0.6,2.5
				c-0.6-0.7-1-1.5-1.3-2.4c-0.2-0.4-0.2-0.9-0.3-1.4c0-0.5,0-0.9,0-1.4c0.1-0.9,0.4-1.8,0.8-2.6C125.2,278.3,125.7,277.5,126.4,277
				z"/>
			<path class="st2" d="M133.4,277.6c0.6,0.4,1,1,1.3,1.6c0.3,0.6,0.5,1.3,0.6,2c0.1,0.7,0.1,1.4-0.1,2.1c-0.1,0.7-0.4,1.3-0.8,1.9
				c0-0.7,0.1-1.3,0.1-2c0-0.6,0-1.3-0.1-1.9C134.2,280.1,133.8,278.9,133.4,277.6z"/>
		</g>
		<g>
			<path class="st1" d="M214.3,283c0,0,2.8,5.8,8,0.5c3.4,3.4,7.3-0.1,7.4-1.5c2.8,1.5,5.4-3.7,0.3-7.7c-5.2-4-15.1-4.2-20.6-1.5
				C201.7,276.1,200.1,285.1,214.3,283z"/>
			<path class="st2" d="M218.1,286.2c-0.2,0-0.4,0-0.6-0.1c-1.9-0.3-3-2-3.4-2.7c-8.6,1.2-10.4-1.8-10.8-3.2c-0.8-2.7,1.7-6.2,5.9-8
				c5.5-2.7,15.8-2.6,21.1,1.6c3.3,2.5,3.7,5.7,2.5,7.6c-0.7,1-1.7,1.4-2.8,1.1c-0.4,0.9-1.5,1.9-2.9,2.5c-1,0.4-2.9,0.7-4.9-0.9
				C220.8,285.5,219.4,286.2,218.1,286.2z M214.3,282.5c0.2,0,0.3,0.1,0.4,0.3c0,0,1,2.1,2.9,2.4c1.3,0.2,2.7-0.5,4.3-2
				c0.1-0.1,0.2-0.1,0.3-0.1c0,0,0,0,0,0c0.1,0,0.2,0,0.3,0.1c1.6,1.6,3.2,1.4,4.2,1c1.5-0.6,2.4-1.8,2.4-2.3c0-0.2,0.1-0.3,0.2-0.4
				c0.1-0.1,0.3-0.1,0.4,0c0.9,0.5,1.7,0,2.1-0.6c0.8-1.2,0.8-3.9-2.3-6.3c-5.1-4-14.8-4-20.1-1.5c-3.7,1.6-6,4.6-5.4,6.9
				C204.8,282.5,208.5,283.4,214.3,282.5C214.2,282.5,214.2,282.5,214.3,282.5z"/>
		</g>
		<path class="st1" d="M230.6,277.2c-0.9,0.2-1.8,0.1-2.6-0.3c0,0.6-0.2,1.1-0.6,1.6c-0.6,0.7-1.5,0.9-2.3,0.8
			c-1.6-0.1-3.2-1-4.3-2.2c0,0.5-0.2,1.1-0.4,1.5c-0.7,1.3-2.2,2.1-3.7,1.9c-1.1-0.2-1.8-0.9-1.8-1.9c-0.6,0.5-1.4,0.7-2.2,0.7
			c-2.2,0.1-4.7-0.9-6.2-2.5c-0.4-0.4-0.8-0.9-1-1.4c-3.8,3.9-2.5,9.3,8.8,7.6c0,0,2.8,5.8,8,0.5c3.4,3.4,7.3-0.1,7.4-1.5
			c2.3,1.2,4.5-2,2.3-5.5C231.5,276.8,231.1,277.1,230.6,277.2z"/>
		<g>
			<path class="st2" d="M215.3,275.8c0.4,1.2,0.5,2.5,0.5,3.7c-0.1,0.6-0.2,1.3-0.4,1.9c-0.2,0.6-0.5,1.3-1.1,1.6
				c0.3-0.6,0.3-1.1,0.4-1.7l0.1-1.8C214.9,278.3,215,277.1,215.3,275.8z"/>
			<path class="st2" d="M219,274.1c0.9,0.3,1.7,0.8,2.4,1.5c0.7,0.7,1.3,1.5,1.6,2.4c0.2,0.5,0.3,1,0.4,1.4c0,0.5,0.1,1-0.1,1.5
				c-0.1,1-0.6,1.9-1.1,2.6c0.2-0.9,0.4-1.8,0.4-2.7c0-0.9-0.1-1.7-0.4-2.5C221.6,276.7,220.3,275.3,219,274.1z"/>
			<path class="st2" d="M225.7,274.5c0.7,0.3,1.3,0.7,1.9,1.2c0.6,0.5,1.1,1.1,1.5,1.7c0.4,0.7,0.8,1.4,0.9,2.2
				c0.1,0.8,0,1.6-0.4,2.3c0-0.8-0.1-1.5-0.3-2.1c-0.2-0.7-0.6-1.3-1-1.9C227.6,276.8,226.6,275.7,225.7,274.5z"/>
		</g>
		<g>
			<path class="st3" d="M189.3,39.3c0,0,12.7-46.6,57-37.4c45,9.4,39.2,82-9.9,108.8C236.4,110.7,214.8,53.3,189.3,39.3z"/>
			<path class="st4" d="M236.4,111.4c-0.1,0-0.2,0-0.2,0c-0.2-0.1-0.3-0.2-0.4-0.4c-0.2-0.6-21.8-57.4-46.8-71.1
				c-0.3-0.2-0.4-0.5-0.3-0.8c0-0.1,3.3-11.9,12-22.4c8.1-9.7,22.6-20.3,45.8-15.4c16.7,3.5,27.8,16,30.5,34.3
				c3.7,24.8-9,58.7-40.2,75.8C236.6,111.4,236.5,111.4,236.4,111.4z M190.1,39c10.6,6,21.6,19.8,32.9,41
				c7.4,13.9,12.5,26.6,13.7,29.8c30.2-16.9,42.3-49.9,38.8-74C272.9,18.1,262.2,6,246.1,2.6c-18.1-3.8-33,1.2-44.4,14.9
				C194.3,26.6,190.9,36.6,190.1,39z"/>
		</g>
		<g class="st7">
			<path class="st3" d="M257.8,85.1c6.2-8.3,14.5-22.4,5.8-47.4C247.4,2,219.6,28.2,220,12.8c0.1-5.1,2.5-8.7,6.1-11.2
				c-28.1,5.7-36.8,37.7-36.8,37.7c25.5,13.9,47.1,71.4,47.1,71.4c7.9-4.3,14.7-9.8,20.3-16C255.4,91.9,255.6,88.1,257.8,85.1z"/>
		</g>
		<path class="st8" d="M205.5,59.6c0,0,4.6-33.1,30.9-33.4c26.3-0.3,42.7,50.7-7.1,77.6L205.5,59.6z"/>
		<path class="st9" d="M227.5,84.7c4.1-2.5,6.8-6.5,8.2-11c1-3.1,1.5-6.5,1.4-9.8c-0.1-3.4-1.2-6.5-2.9-9.4c-1.8-3-3.9-5.8-5.2-9
			c-0.9-2.3-1.3-4.8-1-7.3c0.7-4.5,4-8,7.9-10.1c1.3-0.7,2.8-1.2,4.2-1.7c-1.2-0.2-2.4-0.3-3.7-0.3c-26.3,0.3-30.9,33.4-30.9,33.4
			l15,27.9C223,86.9,225.3,86,227.5,84.7z"/>
		<g>
			<path class="st3" d="M102.1,46.1c0,0,17.1-22.2,52.1-20.3c35.1,1.9,56.1,24.1,68.7,49.3c7.6,18.6,10.1,22,14.4,31.2
				s19.2,43.6-27.8,65.3c-39,16.7-83.5,16.7-111.7,0.3c-18.2-11.8-20.4-26.6-21.7-36.8c0,0-10.5-6.8-27.8-12.7s-39-20.1-35.9-52.3
				C15.6,38,37.3,25.3,55.2,22.5C73.2,19.7,93.7,30.4,102.1,46.1z"/>
			<path class="st4" d="M149.4,184.8c-19.6,0-37.8-4.1-51.9-12.3c-18.7-12.1-20.8-27.6-22-37c-1.8-1.1-11.9-7.2-27.4-12.4
				c-15-5.1-39.6-18.7-36.4-53c3.8-39.1,34.1-46.8,43.3-48.3c17.6-2.7,38.1,7.4,47.1,23.1c1.5-1.7,5.6-6,12.4-10.2
				c8-4.9,21.3-10.5,39.6-9.6c30.3,1.6,53.6,18.3,69.3,49.7c5.3,12.9,8.1,18.4,10.8,23.7c1.2,2.4,2.4,4.7,3.7,7.5
				c6.2,13.4,7.4,25.7,3.4,36.5c-4.4,12.1-15,22-31.6,29.6C190.3,180.6,169.2,184.8,149.4,184.8z M61,22.7c-1.9,0-3.8,0.1-5.7,0.4
				c-8.9,1.4-38.4,8.9-42.1,47C10,103.5,34,116.8,48.6,121.7c17.2,5.8,27.9,12.7,28,12.8c0.2,0.1,0.3,0.3,0.3,0.5
				c1.1,9.2,3,24.5,21.3,36.3c27.9,16.3,72.5,16.1,111-0.4c16.2-7.4,26.5-17.2,30.8-28.9c3.9-10.5,2.7-22.5-3.4-35.5
				c-1.3-2.9-2.5-5.1-3.7-7.5c-2.7-5.4-5.5-10.9-10.8-23.8c-15.4-30.8-38.3-47.3-68.1-48.9c-17.9-1-31,4.6-38.8,9.4
				c-8.4,5.2-12.7,10.6-12.7,10.7c-0.1,0.2-0.4,0.3-0.6,0.3c-0.2,0-0.4-0.2-0.6-0.4C93.9,32.4,77,22.7,61,22.7z"/>
		</g>
		<path class="st10" d="M71.1,48.4c0,0-33-14.1-45.2,13.3c-11.2,26.7,10.2,56.5,50.3,66.1C79.5,108.9,95.2,69,71.1,48.4z"/>
		<path class="st11" d="M164.8,103.5c0,0,5.6-5,16.4-1.2C177.9,97.5,168.7,95.5,164.8,103.5z"/>
		<path class="st10" d="M115,78.2c0,0,6.9-7.8,13-9.7c6.1-1.9,8.9-2.8,6.1-6.9C131.3,57.6,118.9,54.5,115,78.2z"/>
		<path class="st10" d="M209.2,64.7c0,0-6.1-5.1-11.7-2.9c-5.6,2.3-7.8,2.7-8.8-3.2C187.7,52.8,198.2,47.7,209.2,64.7z"/>
		<g>
			<path class="st5" d="M160.1,117.8c-42.7,17.3-30.7,52.8-24.6,65.7c23.3,2.5,49.8-1.4,74.1-11.8c1.2-0.6,0.7-0.5,1.9-1
				C229.4,119.1,193.1,105.5,160.1,117.8z"/>
		</g>
		<g>
			<path class="st12" d="M174,124.4c3.3,0,4,11-5.8,13.5c-9.8,2.5-11.2-3-11.2-3s-0.6,7,5.3,7.9c3,15.5,7.4,22.5,14.6,21.9
				c7.2-0.6,8.2-15.1,7.6-27.2c7.6,2.5,12.2-6.4,12.2-6.4s-11.3,6.2-13.2-0.6c-1.9-6.8,0-6.2,3.3-8.5c2.7-1.9,5.5-3.3,5.8-7.6
				c-9.1-1.9-19.7-1-30,2.4C163.1,119.5,165.2,123.4,174,124.4z"/>
		</g>
		<g>
			<path class="st13" d="M124.7,130.5c2.2,5.5-3.7,13-13.1,16.8c-9.4,3.8-18.8,2.4-21-3.1c-2.2-5.5,3.7-13,13.1-16.8
				C113.1,123.6,122.5,125,124.7,130.5z"/>
			<path class="st14" d="M117.9,128.5c0.4,1.6-1.9,3.6-5.2,4.4c-3.3,0.8-6.3,0.2-6.7-1.4c-0.4-1.6,1.9-3.6,5.2-4.4
				C114.5,126.2,117.5,126.9,117.9,128.5z"/>
		</g>
		<g>
			
				<ellipse transform="matrix(0.9285 -0.3713 0.3713 0.9285 -27.8805 92.2676)" class="st13" cx="225.7" cy="118.5" rx="13.3" ry="7.8"/>
			<path class="st14" d="M233.2,112.1c0.3,1.2-1.4,2.6-3.8,3.2c-2.4,0.6-4.6,0.1-4.9-1c-0.3-1.2,1.4-2.6,3.8-3.2
				C230.7,110.5,232.9,111,233.2,112.1z"/>
		</g>
		<path class="st15" d="M179,121.5c0,0-1.5,9.5,3.4,12.7c-0.3,22.2-0.7,26.4-6.3,26.9c-5.6,0.4-10.7-10.7-12.2-19.3
			c7.7,0,14.1-4.7,14.7-10.7C178.6,124.1,179,121.5,179,121.5z"/>
		<path class="st4" d="M194.4,133.3c-1.8,1.2-3.8,2.2-6,2.7c-1.1,0.2-2.3,0.3-3.4,0c-1.1-0.3-2.2-0.9-3-1.7c-1.7-1.7-2.5-3.9-3-6.1
			c-0.5-2.2-0.6-4.4-0.5-6.7c0-0.4,0.3-0.7,0.7-0.7c0.4,0,0.6,0.3,0.7,0.6l0,0c0.2,3,0.2,6.1-0.3,9.1c-0.2,1.5-0.6,3-1.5,4.5
			c-0.9,1.4-2,2.4-3.2,3.4c-2.4,1.9-5.3,3.3-8.4,3.6c-1.5,0.1-3.1-0.2-4.5-0.9c-1.4-0.7-2.4-1.9-3.2-3.1c0.9,1.2,2.1,2.2,3.4,2.8
			c1.3,0.6,2.8,0.8,4.2,0.6c2.9-0.4,5.5-1.9,7.7-3.7c1.1-1,2.1-2,2.8-3.2c0.7-1.2,1-2.6,1.2-4c0.4-2.9,0.4-5.9,0.2-8.8l1.4,0
			c-0.1,2.1,0,4.3,0.4,6.4c0.4,2.1,1.1,4.2,2.5,5.7c0.7,0.8,1.6,1.3,2.6,1.6c1,0.3,2.1,0.3,3.1,0.2
			C190.4,135.1,192.4,134.3,194.4,133.3z"/>
		<path class="st8" d="M76.4,125.6c0,0,14-41.7,3.7-65.2c-10.3-23.5-44.5-20.2-47,6.2C30.6,93,48.7,116.9,76.4,125.6z"/>
		<path class="st9" d="M51,52c3.2,1,6.8,2.6,8.4,5.7c1.3,2.4,0.9,5.3,0.3,7.8c-0.8,3.2-1.9,6.2-2.9,9.3c-1.1,3.6-1.8,7.4-1.4,11.2
			c0.3,3.5,1.5,6.9,3.7,9.7c2.3,3,5.6,5,8.9,6.7c4,2.1,8.8,3.6,13.4,2.6c0.1,0,0.1,0,0.2-0.1c2.6-13.9,4.2-31.9-1.4-44.7
			c-8.4-19.1-32.6-20.5-42.7-6.2C41.6,51.8,46.3,50.6,51,52z"/>
		<path class="st4" d="M77.7,142.3c-0.9-2.5-1.2-5.1-1.3-7.7c-0.2-2.6-0.1-5.2,0-7.9c0.4-5.2,1.2-10.4,2.2-15.6
			c0.5-2.6,1.2-5.1,1.8-7.6c0.7-2.5,1.2-5,1.7-7.6c0.9-5.1,1.3-10.3,1.1-15.5c-0.1-5.2-0.7-10.3-2.3-15.3c-1.5-4.9-4-9.6-7.6-13.1
			c-3.6-3.6-8.5-5.9-13.6-6.7c-5.1-0.9-10.4-0.6-15.5,0.2c5.1-1.1,10.4-1.6,15.6-0.9c5.2,0.7,10.3,3,14.2,6.6
			c3.9,3.6,6.5,8.5,8.1,13.5c1.6,5.1,2.3,10.3,2.5,15.6c0.1,5.3-0.4,10.5-1.3,15.7c-0.5,2.6-1,5.2-1.7,7.7c-0.7,2.5-1.3,5-1.9,7.6
			c-1.2,5.1-2.1,10.2-2.6,15.4c-0.2,2.6-0.4,5.2-0.4,7.8C76.8,137.2,77,139.8,77.7,142.3z"/>
		<path class="st4" d="M159.7,108.3c1.1-1.9,2.6-3.5,4.4-4.8c1.8-1.3,3.9-2.2,6.1-2.7c0.5-0.2,1.1-0.2,1.7-0.2
			c0.6-0.1,1.1-0.1,1.7-0.1l1.7,0.1c0.5,0.1,1.1,0.2,1.6,0.3l0.8,0.1l0.8,0.2l1.6,0.5c1,0.4,2,0.9,2.9,1.4c-1.1-0.2-2.1-0.6-3.1-0.8
			l-1.6-0.3l-0.8-0.1l-0.8-0.1c-0.5,0-1-0.1-1.6-0.1l-1.6,0c-0.5,0-1,0.1-1.5,0.1c-0.5,0.1-1,0.1-1.5,0.2c-2,0.4-3.9,1.2-5.8,2.2
			C162.9,105.5,161.2,106.8,159.7,108.3z"/>
		<g>
			<path class="st16" d="M149.6,97.8c-0.4,13.8-10.7,21.8-19.5,21.8c-8.8,0-14.3-9.1-14.3-20.7s7.5-23.1,16.9-23.6
				C143.4,74.7,150,85.4,149.6,97.8z"/>
			<path class="st12" d="M150.5,100c-0.4,13.8-10.7,21.8-19.5,21.8s-14.3-9.1-14.3-20.7c0-11.6,7.5-23.1,16.9-23.6
				C144.3,76.9,150.9,87.6,150.5,100z"/>
			<path class="st17" d="M148.3,100.6c-0.4,12.8-9.9,20.2-18.1,20.2c-8.2,0-13.3-8.5-13.3-19.2c0-10.8,7-21.4,15.7-21.9
				C142.5,79.1,148.7,89,148.3,100.6z"/>
		</g>
		<g>
			<ellipse class="st18" cx="132.6" cy="100.1" rx="14.1" ry="18.4"/>
			<path class="st16" d="M145,99.9c0,9-5.6,16.2-12.4,16.2c-6.9,0-12.4-7.3-12.4-16.2c0-9,5.6-16.2,12.4-16.2
				C139.5,83.7,145,91,145,99.9z"/>
			<path class="st19" d="M141.7,99.9c0,6.6-4.1,11.9-9.1,11.9c-5,0-9.1-5.3-9.1-11.9c0-6.6,4.1-11.9,9.1-11.9
				C137.6,88.1,141.7,93.4,141.7,99.9z"/>
			<path class="st18" d="M142.4,96.1c0,0,1.6,13.7-9.5,15.5C140.3,115.3,145.7,103.4,142.4,96.1z"/>
			<ellipse class="st20" cx="127" cy="92.4" rx="4.5" ry="5.9"/>
			<path class="st20" d="M144.9,109.7c0,1.6-1,2.9-2.2,2.9c-1.2,0-2.2-1.3-2.2-2.9c0-1.6,1-2.9,2.2-2.9
				C144,106.8,144.9,108.1,144.9,109.7z"/>
		</g>
		<g>
			<path class="st16" d="M221.7,87.2c2.2,13.6-6.3,23.4-14.9,25.1c-8.6,1.7-15.8-6.2-18.1-17.5c-2.2-11.4,2.9-24.1,12-26.4
				C211.1,65.7,219.7,74.9,221.7,87.2z"/>
			<path class="st12" d="M223,89.2c2.2,13.6-6.3,23.4-14.9,25.1c-8.6,1.7-15.8-6.2-18.1-17.5c-2.2-11.4,2.9-24.1,12-26.4
				C212.5,67.7,221,76.9,223,89.2z"/>
			<path class="st17" d="M221,90.2c2.1,12.7-5.8,21.8-13.8,23.3c-8,1.6-14.7-5.7-16.8-16.3s2.7-22.4,11.2-24.6
				C211.2,70.3,219.1,78.8,221,90.2z"/>
		</g>
		<g>
			
				<ellipse transform="matrix(0.9879 -0.1551 0.1551 0.9879 -11.8965 32.9471)" class="st18" cx="205.2" cy="92.7" rx="14.1" ry="18.4"/>
			
				<ellipse transform="matrix(0.9879 -0.1551 0.1551 0.9879 -11.865 32.9396)" class="st16" cx="205.2" cy="92.5" rx="12.4" ry="16.2"/>
			
				<ellipse transform="matrix(0.9879 -0.1551 0.1551 0.9879 -11.8649 32.9394)" class="st19" cx="205.2" cy="92.5" rx="9.1" ry="11.9"/>
			<path class="st18" d="M214.3,87.2c0,0,3.7,13.3-7,16.8C215.2,106.5,218.6,94,214.3,87.2z"/>
			<path class="st20" d="M203,85.3c0.5,3.2-1.1,6.2-3.6,6.6c-2.5,0.4-4.9-1.9-5.4-5.2c-0.5-3.2,1.1-6.2,3.6-6.6S202.4,82,203,85.3z"
				/>
			<path class="st20" d="M218.9,100.3c0.2,1.6-0.5,3-1.7,3.2c-1.2,0.2-2.4-0.9-2.6-2.5c-0.2-1.6,0.5-3,1.7-3.2
				C217.4,97.6,218.6,98.7,218.9,100.3z"/>
		</g>
		<g>
			<path class="st21" d="M171.9,149.2c-2.2,0.5-3.7,1.7-4.6,3.2c2.3,5,5.5,8.9,8.9,8.7c3-0.2,4.5-1.5,5.3-6.1
				C179.8,151.3,176.6,148.1,171.9,149.2z"/>
			<path class="st22" d="M178.9,123.8C178.9,123.8,178.8,123.8,178.9,123.8c-0.4,0-0.7-0.4-0.7-0.7c0.1-1,0.2-1.6,0.2-1.6
				c0.1-0.4,0.4-0.6,0.8-0.6c0.4,0.1,0.6,0.4,0.6,0.8c0,0-0.1,0.5-0.2,1.5C179.5,123.5,179.2,123.8,178.9,123.8z"/>
		</g>
		<g>
			<g>
				<path class="st23" d="M150.2,134c0.1,0.5,0.5,0.9,1,0.8c0.5-0.1,0.9-0.5,0.8-1c-0.1-0.5-0.5-0.9-1-0.8
					C150.5,133,150.1,133.5,150.2,134z"/>
				<path class="st23" d="M145.9,131c0.1,0.5,0.5,0.9,1,0.8c0.5-0.1,0.9-0.5,0.8-1c-0.1-0.5-0.5-0.9-1-0.8S145.8,130.5,145.9,131z"
					/>
				<path class="st23" d="M148.5,126.4c0.1,0.5,0.5,0.9,1,0.8c0.5-0.1,0.9-0.5,0.8-1c-0.1-0.5-0.5-0.9-1-0.8
					C148.8,125.4,148.4,125.8,148.5,126.4z"/>
			</g>
			<path class="st24" d="M151.1,133.9c-3.1,0.1-6.2,0.2-9.4,0.4c-3.1,0.2-6.2,0.5-9.3,0.8c-6.2,0.7-12.4,1.6-18.5,3
				c-6.1,1.3-12.1,3-17.9,5.3c-5.8,2.3-11.4,5.2-16.4,8.9c2.4-2,5-3.8,7.7-5.4c2.7-1.6,5.6-2.9,8.4-4.2c5.8-2.4,11.9-4.1,18-5.5
				c6.1-1.3,12.3-2.2,18.6-2.8C138.6,133.9,144.9,133.6,151.1,133.9z"/>
			<path class="st24" d="M146.8,130.9c-3.5-0.3-7.1-0.5-10.7-0.6c-3.6-0.1-7.1-0.1-10.7,0c-7.1,0.2-14.2,0.6-21.2,1.7
				c-7,1-14,2.6-20.7,4.9c-6.7,2.3-13.1,5.5-18.8,9.8c2.7-2.3,5.7-4.3,8.8-6c3.1-1.7,6.4-3.1,9.8-4.4c6.7-2.5,13.7-4,20.8-5.1
				c7.1-1,14.2-1.5,21.3-1.5C132.6,129.6,139.7,130,146.8,130.9z"/>
			<path class="st24" d="M149.4,126.2c-3.5-0.2-6.9-0.3-10.4-0.3c-3.5-0.1-6.9-0.1-10.4,0c-6.9,0.1-13.8,0.3-20.7,0.9
				c-3.4,0.3-6.9,0.6-10.3,1.1c-3.4,0.5-6.8,1.1-10.2,1.8c-3.4,0.7-6.7,1.6-10,2.7c-3.3,1.1-6.5,2.5-9.5,4.2
				c5.8-3.8,12.6-6,19.3-7.6c6.8-1.6,13.7-2.5,20.6-3.1c6.9-0.5,13.9-0.8,20.8-0.7C135.6,125.3,142.5,125.6,149.4,126.2z"/>
		</g>
		<path class="st16" d="M113,75.5c0,0,6.9-7.8,13-9.7C132,64,134.8,63,132,59C129.2,54.9,116.9,51.9,113,75.5z"/>
		<path class="st16" d="M207.1,62c0,0-6.1-5.1-11.7-2.9c-5.6,2.3-7.8,2.7-8.8-3.2C185.7,50.2,196.2,45.1,207.1,62z"/>
		<g>
			<path class="st25" d="M176,108.5c0,0-12.5,1.4-11.2,7.4c1.4,5.4,11.1,7.6,14.1,7.3c3-0.4,11.1-5.6,10.7-11
				C189.2,106.7,177.4,108.4,176,108.5z"/>
			<path class="st26" d="M184.8,110.5c0,0-5.2-0.2-14.7,3.5c-3.9,1.9-3.6-4.1,6-5.1C184,108.1,186.9,109.9,184.8,110.5z"/>
			<path class="st27" d="M175.1,110.5c0.2,0.8-1,1.9-2.7,2.4c-1.7,0.5-3.3,0.2-3.6-0.6c-0.2-0.8,1-1.9,2.7-2.4
				C173.2,109.4,174.8,109.7,175.1,110.5z"/>
			<g class="st28">
				<path class="st29" d="M189.6,112.1c-0.1-2.3-2.3-3.3-4.9-3.7c2.4,1.3,3.3,3.1,1.9,5.6c-2.2,3.9-8.2,9.8-17.2,4.6
					c-3.1-1.8-4.3-3.5-4.4-4.9c-0.3,0.6-0.3,1.4-0.2,2.2c1.4,5.4,11.1,7.6,14.1,7.3C181.9,122.8,190,117.6,189.6,112.1z"/>
			</g>
		</g>
		<path class="st11" d="M243.8,4.3c0,0,35.1,7.6,28.9,55.3C271.6,73.6,290.9,9.5,243.8,4.3z"/>
		<path class="st11" d="M48.3,30.5c0,0-35.1,7.6-28.9,55.3C20.5,99.7,1.2,35.6,48.3,30.5z"/>
		<g>
			<path class="st6" d="M74.9,30.5c16.2,9.3,23.2,24.3,23.2,34.7c4.4-12.6,18.5-31.8,38.4-38.3c-23,4.5-34.3,19.2-34.3,19.2
				c-8.5-15.7-29-26.4-46.9-23.6c-4.7,0.7-9.7,2.1-14.5,4.4C50.9,24,63,23.7,74.9,30.5z"/>
			<path class="st6" d="M179.3,171.6c-111.4,19.8-97.9-69.7-97.9-69.7c-7.7,27.1-3.7,40.4-3.7,40.4l-0.3,0.2
				c1.9,9.2,6.3,20.2,20.5,29.4c28.1,16.4,72.7,16.4,111.7-0.3c41.6-19.2,34.8-48.2,29.6-61.1C247.1,140,229,161,179.3,171.6z"/>
		</g>
		<g>
			<path class="st3" d="M112.7,178.6c0,0,12,4.8,27.7,4.8c10.6-6.6,19.4-2.4,18.9,5.3c5.1,2.9,2.4,8.2,2.4,8.2s6.6,9.3-4.8,12.8
				c-7.2,2.7-10.6,14.6-27.7,15.2S105.5,203.3,112.7,178.6z"/>
			<path class="st4" d="M128.6,225.6c-5.4,0-10.1-2.3-13.5-6.7c-6.7-8.6-7.8-24.1-3.1-40.5c0.1-0.2,0.2-0.3,0.4-0.4
				c0.2-0.1,0.4-0.1,0.6,0c0.1,0,11.9,4.7,27.2,4.7c5.9-3.6,11.8-4.3,15.8-1.9c2.6,1.6,4.1,4.3,4,7.5c3.8,2.5,3.4,6.4,2.5,8.6
				c0.7,1.1,2.6,4.6,1.5,8c-0.9,2.5-3.2,4.3-6.8,5.5c-2.3,0.8-4.2,2.8-6.5,5c-4.4,4.4-9.9,9.8-21.4,10.2
				C129,225.6,128.8,225.6,128.6,225.6z M113.2,179.5c-4.4,15.7-3.3,30.4,3,38.5c3.2,4.2,7.7,6.3,13,6.1c10.9-0.3,16.2-5.6,20.4-9.8
				c2.4-2.4,4.4-4.4,7-5.3c3.3-1,5.3-2.5,6-4.6c1.1-3.4-1.5-7.1-1.5-7.1c-0.2-0.2-0.2-0.5-0.1-0.7c0.1-0.2,2.3-4.8-2.1-7.3
				c-0.2-0.1-0.4-0.4-0.3-0.7c0.2-2.8-1-5.3-3.3-6.6c-3.6-2.2-9.1-1.4-14.5,2c-0.1,0.1-0.2,0.1-0.4,0.1
				C126.9,184.1,116,180.5,113.2,179.5z"/>
		</g>
		<g>
			<path class="st3" d="M211.4,170.5c0,0,13.4,12.4,10.1,34.7c-3.5,19.6-16.5,22.3-25.8,11.5c-7.8-8.5-10.3-10.5-14.4-11.5
				c-4.1-1-5.2-8.5-0.8-11.1c-3.3-3.5-0.4-7,1.6-7.8c-2.7-5.8,3.3-9.7,10.5-8.2C202.8,174.7,211.4,170.5,211.4,170.5z"/>
			<path class="st4" d="M207.2,223.7c-4.1,0-8.4-2.3-12-6.5c-7.8-8.5-10.2-10.4-14.1-11.3c-2.1-0.5-3.6-2.5-4.1-5.1
				c-0.4-2.7,0.5-5.3,2.4-6.8c-1.3-1.7-1.3-3.2-1.1-4.3c0.4-1.7,1.6-3.1,2.8-3.8c-0.8-2.1-0.5-4.2,0.7-5.8c2-2.6,6.2-3.6,10.6-2.8
				c9.9-3.2,18.4-7.3,18.5-7.4c0.3-0.1,0.6-0.1,0.8,0.1c0.1,0.1,13.6,12.9,10.3,35.3c-1.8,10-6.1,16.3-12.1,18
				C209.2,223.5,208.2,223.7,207.2,223.7z M189.7,178.4c-2.9,0-5.4,0.9-6.6,2.5c-1.1,1.4-1.2,3.1-0.3,5c0.1,0.2,0.1,0.4,0,0.6
				c-0.1,0.2-0.2,0.3-0.4,0.4c-1,0.4-2.3,1.6-2.6,3.1c-0.3,1.2,0.1,2.4,1.2,3.6c0.1,0.2,0.2,0.4,0.2,0.6c0,0.2-0.1,0.4-0.3,0.5
				c-2.2,1.4-2.7,4-2.4,5.9c0.3,2.1,1.5,3.6,3,4c4.4,1.1,7.1,3.5,14.8,11.8c4.2,4.8,9.1,6.9,13.5,5.7c5.4-1.5,9.4-7.6,11-16.9
				c2.9-19.7-7.6-31.6-9.6-33.7c-1.9,0.9-9.7,4.4-18.4,7.3c-0.1,0-0.2,0-0.4,0C191.6,178.5,190.6,178.4,189.7,178.4z"/>
		</g>
		<g class="st7">
			<path class="st6" d="M155.8,205.3c-9.7,1-9.9,13.5-27.1,13.8c-15.8,0.5-15-20.3-11.4-27.4c3.6-7.2,12.1-9,17.4-1.9
				c2.1-2.4,4.2-5.1,6.6-7c-0.3,0.2-0.6,0.4-1,0.6c-15.7,0-27.7-4.8-27.7-4.8c-7.2,24.7-0.5,46.8,16.5,46.3
				c17-0.5,20.5-12.5,27.7-15.2c6.8-2.1,7.2-6.2,6.4-9.2C162.4,202.7,160.4,204.9,155.8,205.3z"/>
		</g>
		<g>
			<path class="st30" d="M219,213.6c1.2-2,2.1-4.7,2.5-8.4C220.9,208.5,220.1,211.3,219,213.6z"/>
			<path class="st6" d="M198.7,212.1c-3.4-4.6-3.6-6.3-11.4-8.7c-7.8-2.4-5.3-8.9,0.2-10.2c-1.9-1-4.1-0.3-4.1-3.9
				c0-3.6,4.3-4.4,4.3-4.4c-3.6,0.5-4.8-3.6-0.2-6.3c6-3.1,17.2,8,17.2,8s-1.9-5.1,1.9-11.1c2.2-2.7,5-2.8,7.4-2.1
				c-1.5-1.9-2.5-2.9-2.5-2.9s-8.7,4.2-18.8,7.5c-7.2-1.4-13.2,2.5-10.5,8.2c-2.1,0.8-4.9,4.3-1.6,7.8c-4.3,2.7-3.3,10.1,0.8,11.1
				c4.1,1,6.6,3.1,14.4,11.5c7.7,8.9,18,8.6,23.3-3.1C213.5,222.8,201.5,215.9,198.7,212.1z"/>
		</g>
		<g>
			<path class="st4" d="M141.2,182.8c-2,2.4-3.8,4.7-5.4,7.2c-0.8,1.2-1.5,2.5-2.2,3.9c-0.7,1.3-1.2,2.7-1.8,4.2
				c0-1.5,0.2-3.1,0.8-4.6c0.1-0.4,0.2-0.7,0.4-1.1c0.2-0.4,0.3-0.7,0.5-1.1c0.4-0.7,0.7-1.4,1.1-2c0.8-1.3,1.8-2.5,2.9-3.6
				C138.6,184.5,139.8,183.5,141.2,182.8z"/>
			<path class="st4" d="M148.9,190c0.6-0.8,1.4-1.3,2.2-1.8c0.8-0.5,1.8-0.7,2.7-0.9c1-0.1,1.9-0.1,2.9,0.1c0.9,0.2,1.8,0.7,2.5,1.2
				c-1,0-1.8-0.2-2.7-0.2c-0.9,0-1.7,0-2.5,0.2C152.3,188.9,150.7,189.4,148.9,190z"/>
			<path class="st4" d="M151,198.1c0.7-0.7,1.5-1.2,2.4-1.6c0.9-0.4,1.8-0.7,2.7-0.9c1-0.1,2-0.2,2.9,0c1,0.2,1.9,0.6,2.6,1.3
				c-1-0.2-1.8-0.2-2.7-0.2c-0.9,0-1.7,0.1-2.6,0.3C154.6,197.3,152.9,197.7,151,198.1z"/>
		</g>
		<g>
			<path class="st4" d="M180.5,194.1c0.5-0.6,1.3-1.1,2-1.3c0.8-0.3,1.6-0.4,2.4-0.4c0.8,0,1.6,0.2,2.4,0.5c0.8,0.3,1.5,0.7,2.1,1.2
				c-0.8,0-1.6-0.1-2.3-0.1c-0.7,0-1.5-0.1-2.2-0.1C183.4,193.8,182.1,193.8,180.5,194.1z"/>
			<path class="st4" d="M182.1,186.2c0.6-0.6,1.3-1,2.1-1.3c0.8-0.3,1.6-0.5,2.4-0.6c1.6-0.2,3.4,0.1,4.8,1.1c-0.8,0-1.6,0-2.4,0.1
				c-0.8,0.1-1.5,0.1-2.2,0.2C185.3,185.9,183.8,186.1,182.1,186.2z"/>
			<path class="st4" d="M192.7,178c1.5,0.1,3,0.5,4.4,1.1c1.4,0.6,2.7,1.4,3.9,2.3c0.6,0.5,1.1,1,1.7,1.5c0.5,0.6,1,1.1,1.4,1.8
				c0.9,1.2,1.5,2.7,1.9,4.1c-0.9-1.2-1.7-2.4-2.7-3.4c-1-1.1-2-2-3.1-2.9C197.8,180.7,195.3,179.3,192.7,178z"/>
		</g>
		<path class="st11" d="M135.4,195c0,0,9.3-17.6,21-10.1C154.5,176.9,138.2,180.8,135.4,195z"/>
		<path class="st11" d="M203,187.8c0,0-7.5-9.9-15.5-7.5C193.2,175.8,200.5,181.8,203,187.8z"/>
		<path class="st11" d="M212.8,175.7c0,0,10.1,15.2,3.9,35.9C221.5,208,223.9,185.5,212.8,175.7z"/>
		<path class="st11" d="M131.7,33.4c0,0,34.6-9.1,68.1,14.4C181.7,25.7,141.8,23.7,131.7,33.4z"/>
		<path class="st11" d="M107,242.9c0,0,12-1.7,21.5,9.9C123.4,242.6,113.5,238.8,107,242.9z"/>
		<path class="st11" d="M217.2,239.3c0,0,8.2-2.2,9.5,11.9C228.5,242.3,224.4,235.7,217.2,239.3z"/>
		<path class="st11" d="M229,98.1c0,0,18.8,25.4,1.9,45.3C242.4,134,244.5,115.5,229,98.1z"/>
		<g>
			<g>
				<path class="st23" d="M202.5,129.5c0.1,0.5-0.3,1-0.8,1c-0.5,0.1-1-0.3-1-0.8c-0.1-0.5,0.3-1,0.8-1
					C202,128.6,202.4,129,202.5,129.5z"/>
				<path class="st23" d="M206,125.6c0.1,0.5-0.3,1-0.8,1c-0.5,0.1-1-0.3-1-0.8c-0.1-0.5,0.3-1,0.8-1
					C205.5,124.7,205.9,125.1,206,125.6z"/>
				<path class="st23" d="M202.4,121.6c0.1,0.5-0.3,1-0.8,1c-0.5,0.1-1-0.3-1-0.8c-0.1-0.5,0.3-1,0.8-1
					C201.8,120.8,202.3,121.1,202.4,121.6z"/>
			</g>
			<path class="st24" d="M201.6,129.6c3-0.7,6.1-1.3,9.2-1.8c3.1-0.5,6.2-1,9.3-1.4c6.2-0.8,12.4-1.4,18.6-1.5
				c6.2-0.2,12.5,0.1,18.6,0.9c6.2,0.8,12.3,2.3,18,4.8c-2.8-1.4-5.7-2.5-8.7-3.5c-3-0.9-6.1-1.5-9.2-2c-6.2-1-12.5-1.2-18.8-1.1
				c-6.3,0.2-12.5,0.8-18.7,1.7C213.7,126.6,207.6,127.9,201.6,129.6z"/>
			<path class="st24" d="M205.1,125.7c3.4-1.1,6.8-2.2,10.2-3.1c3.4-0.9,6.9-1.8,10.3-2.6c6.9-1.5,13.9-2.7,21-3.3
				c7.1-0.7,14.2-0.8,21.2-0.1c7.1,0.7,14,2.2,20.6,5.1c-3.2-1.6-6.6-2.8-10-3.8c-3.4-0.9-7-1.5-10.5-2c-7.1-0.8-14.3-0.7-21.4-0.1
				c-7.1,0.7-14.2,1.9-21.1,3.6C218.5,121.1,211.7,123.1,205.1,125.7z"/>
			<path class="st24" d="M201.4,121.8c3.3-1,6.7-1.9,10-2.8c3.3-0.9,6.7-1.7,10.1-2.5c6.7-1.6,13.5-2.9,20.4-4
				c3.4-0.5,6.8-1,10.3-1.4c3.4-0.3,6.9-0.5,10.3-0.7c3.5-0.1,6.9,0,10.4,0.3c3.4,0.3,6.9,0.9,10.2,1.8c-8.4-4.3-14-3.3-20.6-2.8
				c-7,0.1-13.9,0.8-20.8,1.8c-6.9,1.1-13.7,2.5-20.4,4.2C214.7,117.5,208,119.4,201.4,121.8z"/>
		</g>
	</g>
</g>
</svg>
