<?xml version="1.0" encoding="utf-8"?>
<!-- Generator: Adobe Illustrator 24.0.0, SVG Export Plug-In . SVG Version: 6.00 Build 0)  -->
<svg version="1.1" id="Layer_1" xmlns:xodm="http://www.corel.com/coreldraw/odm/2003"
	 xmlns="http://www.w3.org/2000/svg" xmlns:xlink="http://www.w3.org/1999/xlink" x="0px" y="0px" viewBox="0 0 277.5 360"
	 style="enable-background:new 0 0 277.5 360;" xml:space="preserve">
<style type="text/css">
	.st0{fill-rule:evenodd;clip-rule:evenodd;}
	
		.st1{fill-rule:evenodd;clip-rule:evenodd;fill:#FFFFFF;stroke:#000000;stroke-width:0.4999;stroke-linecap:round;stroke-linejoin:round;stroke-miterlimit:10;}
	.st2{clip-path:url(#SVGID_2_);}
	.st3{fill:#F1E9E1;}
	.st4{fill:#FFB2B8;}
	.st5{fill:#CE6F7B;}
	.st6{fill:#C69A69;}
	.st7{fill:#42210B;}
	.st8{fill:#FEFDFD;}
	.st9{opacity:0.5;fill:#C69A69;}
	.st10{opacity:0.5;}
	.st11{fill:#FFBFA6;}
	.st12{opacity:0.3;fill:#FF703C;}
	.st13{fill:#C6B8AB;}
	.st14{fill:#C2CFD8;}
	.st15{fill:#CCCCCC;}
	.st16{opacity:0.57;fill:#FFB2B8;}
	.st17{fill:#FFFFFF;}
	.st18{fill:#7C1D1B;}
	.st19{fill:#603813;}
	.st20{fill:#FCF8ED;}
	.st21{fill:#C69C6D;}
	.st22{fill:#1B1464;}
	.st23{fill:#FAF3E2;}
	.st24{fill:#FFADB5;}
	.st25{fill:#FF0000;}
	.st26{fill:#DFC2A9;}
	.st27{fill:#9099A8;}
	.st28{fill:#C33C24;}
	.st29{fill:#F76E76;}
	.st30{fill:#FDF7F4;}
	.st31{opacity:0.7;}
	.st32{fill:#703C24;}
	.st33{fill:none;}
	.st34{fill:none;stroke:#FFFFFF;stroke-width:8;stroke-linecap:round;stroke-linejoin:round;stroke-miterlimit:10;}
	.st35{font-family:'HoneyScript-SemiBold';}
	.st36{font-size:93.0966px;}
</style>
<rect x="-38.1" class="st0" width="360" height="360"/>
<circle class="st1" cx="138.8" cy="141.5" r="138.8"/>
<g>
	<defs>
		<rect id="SVGID_1_" x="7.3" y="-0.9" width="262.9" height="284.8"/>
	</defs>
	<clipPath id="SVGID_2_">
		<use xlink:href="#SVGID_1_"  style="overflow:visible;"/>
	</clipPath>
	<g class="st2">
	</g>
</g>
<g>
	<ellipse class="st3" cx="158.5" cy="256.6" rx="102.7" ry="24.3"/>
	<g>
		<g>
			<g>
				<path class="st4" d="M97,241.5c0,0-18.8-4.3-24.3-18.9c-4.5-12,0.5-19.8,3.6-27.1c3.8-8.9,5.6-21.2-7.2-22.5
					c-4.3-0.4-13.8,2.6-13.8,4.3c0,1.8,15.6-4.8,18.1,4.9c2.6,9.7-10.4,17.2-8.4,36.1c2,18.9,18.3,29.3,35.2,32.9L97,241.5z"/>
				<path class="st5" d="M100.3,251.6C100.3,251.6,100.2,251.6,100.3,251.6c-20.5-4.3-33.8-16.8-35.6-33.3
					c-1.1-10.6,2.4-17.7,5.3-23.4c2.3-4.7,4.2-8.4,3.1-12.6c-1.7-6.4-9.6-5.2-14.3-4.5c-2.2,0.3-3.2,0.5-3.6,0.1
					c-0.1-0.1-0.2-0.3-0.2-0.5c0-0.4,0.2-0.7,0.6-1.1c2-1.8,9.6-4.1,13.7-3.7c4.2,0.4,7.2,2,8.8,4.8c3.4,5.7,0.2,14.7-1.3,18.2
					c-0.4,0.9-0.8,1.8-1.2,2.8c-2.9,6.4-6.2,13.6-2.3,24c5.3,14.2,23.8,18.6,24,18.6c0.1,0,0.3,0.1,0.3,0.3l3.3,9.7
					c0,0.1,0,0.3-0.1,0.4C100.5,251.6,100.4,251.6,100.3,251.6z M64.6,176.4c4,0,8.1,1.1,9.3,5.7c1.2,4.5-0.8,8.5-3.1,13.1
					c-2.8,5.6-6.3,12.6-5.2,23c1.7,15.9,14.5,28,34.1,32.4l-3-8.8c-2.2-0.6-19.2-5.3-24.3-19.1c-4-10.7-0.6-18.1,2.3-24.6
					c0.4-0.9,0.8-1.9,1.2-2.8c1.5-3.5,4.6-12.1,1.4-17.5c-1.5-2.6-4.3-4-8.2-4.4c-3.7-0.4-11.2,1.9-13,3.5c-0.2,0.1-0.2,0.3-0.3,0.3
					c0.4,0.1,1.7-0.1,2.9-0.3C60.3,176.8,62.4,176.4,64.6,176.4z"/>
			</g>
			<path class="st4" d="M97,241.5c0,0-2.5-0.6-6-2c0.1,0.8,0.1,1.5-0.1,2.3c-0.2,0.8-0.8,1.9-1.8,2c-0.6,0.1-1.3-0.2-1.8-0.4
				c-0.7-0.3-1.4-0.6-2-0.9c-1.6-0.8-3.1-1.6-4.5-2.6c-1.8-1.3-3.4-2.7-4.8-4.3c-1.5-1.8-2.7-3.8-3.8-5.8c-2-3.8-3.5-8-3.9-12.3
				c-0.5-4.3,0-8.6,1.2-12.7c1.3-4.4,3.7-8.4,5.1-12.8c0.7-2.1,1.1-4.3,1.2-6.6c0.1-1.7,0-3.3-0.5-4.9c-0.6-2-1.6-4-1.7-6.1
				c-1.3-0.6-2.8-1-4.6-1.2c-4.3-0.4-13.8,2.6-13.8,4.3c0,1.8,15.6-4.8,18.1,4.9c2.6,9.7-10.4,17.2-8.4,36.1
				c2,18.9,18.3,29.3,35.2,32.9L97,241.5z"/>
			<g>
				<path class="st5" d="M88.2,247.6c-0.1,0-0.2-0.1-0.3-0.2c-0.1-0.1-1.6-2-1.4-4.5c0.2-1.6,1.1-3.1,2.8-4.4
					c0.2-0.1,0.4-0.1,0.6,0.1c0.1,0.2,0.1,0.4-0.1,0.6c-1.5,1.1-2.3,2.4-2.4,3.8c-0.2,2.1,1.2,3.9,1.2,3.9c0.1,0.2,0.1,0.4-0.1,0.6
					C88.4,247.6,88.3,247.6,88.2,247.6z"/>
				<path class="st5" d="M78.7,241.9c-0.2,0-0.4-0.2-0.4-0.4c0,0-0.6-4.8,4.1-6.6c0.2-0.1,0.5,0,0.5,0.2c0.1,0.2,0,0.5-0.2,0.5
					c-4.1,1.6-3.6,5.5-3.6,5.7C79.1,241.6,79,241.8,78.7,241.9C78.7,241.9,78.7,241.9,78.7,241.9z"/>
				<path class="st5" d="M72,235.7c-0.2,0-0.4-0.1-0.4-0.4c0-0.1-0.4-2.6,1.1-4.4c0.9-1.1,2.3-1.7,4.1-1.7c0,0,0,0,0,0
					c0.2,0,0.4,0.2,0.4,0.4c0,0.2-0.2,0.4-0.4,0.4c-1.6,0-2.7,0.5-3.5,1.4c-1.2,1.5-0.9,3.8-0.9,3.8C72.4,235.5,72.3,235.7,72,235.7
					C72,235.7,72,235.7,72,235.7z"/>
				<path class="st5" d="M66.7,226.2c0,0-0.1,0-0.1,0c-0.2-0.1-0.4-0.3-0.3-0.5c0,0,1.2-4.5,6.5-3.5c0.2,0,0.4,0.3,0.3,0.5
					c0,0.2-0.3,0.4-0.5,0.3c-4.5-0.9-5.5,2.7-5.5,2.9C67.1,226.1,66.9,226.2,66.7,226.2z"/>
				<path class="st5" d="M64.9,216c-0.1,0-0.2,0-0.3-0.1c-0.2-0.2-0.2-0.4,0-0.6c0,0,2.9-2.9,6.3-0.9c0.2,0.1,0.3,0.4,0.1,0.6
					c-0.1,0.2-0.4,0.3-0.6,0.1c-2.8-1.7-5.2,0.7-5.3,0.8C65.1,215.9,65,216,64.9,216z"/>
				<path class="st5" d="M71.5,207.7c-0.1,0-0.2,0-0.3-0.1c-0.9-0.9-1.8-1.4-2.8-1.4c-1.4,0-2.4,1-2.4,1c-0.2,0.2-0.4,0.2-0.6,0
					c-0.2-0.2-0.2-0.4,0-0.6c0-0.1,1.2-1.2,3-1.2c0,0,0,0,0,0c1.2,0,2.3,0.6,3.4,1.7c0.2,0.2,0.2,0.4,0,0.6
					C71.7,207.7,71.6,207.7,71.5,207.7z"/>
				<path class="st5" d="M74.6,199.8c-0.1,0-0.2-0.1-0.3-0.2c-0.9-1.1-1.8-1.6-2.8-1.7c-1.4-0.1-2.4,0.8-2.4,0.8
					c-0.2,0.2-0.4,0.1-0.6,0c-0.2-0.2-0.1-0.4,0-0.6c0.1,0,1.3-1.1,3-1c1.2,0.1,2.4,0.8,3.4,2c0.1,0.2,0.1,0.4-0.1,0.6
					C74.7,199.7,74.7,199.8,74.6,199.8z"/>
				<path class="st5" d="M77.7,191.5c-0.1,0-0.3-0.1-0.4-0.2c-0.4-0.7-1-1.1-1.7-1.2c-1.4-0.3-2.9,0.7-2.9,0.7
					c-0.2,0.1-0.5,0.1-0.6-0.1c-0.1-0.2-0.1-0.5,0.1-0.6c0.1,0,1.8-1.2,3.6-0.9c0.9,0.2,1.7,0.7,2.2,1.6c0.1,0.2,0.1,0.5-0.1,0.6
					C77.8,191.5,77.8,191.5,77.7,191.5z"/>
				<path class="st5" d="M73.7,183.8c-0.1,0-0.2,0-0.2-0.1c-0.2-0.1-0.2-0.4-0.1-0.6c0,0,2.4-3.3,5.9-0.8c0.2,0.1,0.2,0.4,0.1,0.6
					c-0.1,0.2-0.4,0.2-0.6,0.1c-2.8-2-4.6,0.5-4.7,0.6C74,183.7,73.8,183.8,73.7,183.8z"/>
				<path class="st5" d="M69.8,178.2C69.8,178.2,69.7,178.2,69.8,178.2c-0.3,0-0.4-0.2-0.4-0.5c0-0.1,0.3-2,1.7-3.1
					c0.8-0.6,1.8-0.8,3-0.6c0.2,0,0.4,0.3,0.3,0.5c0,0.2-0.3,0.4-0.5,0.3c-0.9-0.2-1.7,0-2.4,0.5c-1.2,0.9-1.4,2.5-1.4,2.6
					C70.2,178.1,70,178.2,69.8,178.2z"/>
				<path class="st5" d="M63.2,177.1c-0.1,0-0.3-0.1-0.4-0.2c0,0-0.7-1.2-0.3-2.3c0.2-0.6,0.6-1.1,1.3-1.5c0.2-0.1,0.5,0,0.6,0.2
					c0.1,0.2,0,0.5-0.2,0.6c-0.5,0.3-0.8,0.6-0.9,1c-0.2,0.8,0.2,1.7,0.2,1.7c0.1,0.2,0,0.5-0.2,0.6
					C63.4,177.1,63.3,177.1,63.2,177.1z"/>
			</g>
		</g>
		<g>
			<path class="st6" d="M120.8,170.1c0,0-15.1,25.8-21.2,36.3c-6.1,10.5-15.1,42.9,13.2,57c16.6,5.8,32.9,1.9,56.3,0.7
				s32.4-1,37.8,0.5c9-11,21.9-27,12.2-38.7c-6.3-6.8-15.6,1.9-17.5,7.3c0.7-16.3-2.4-53.6-9.3-66.5
				C180.3,171.3,151,176.5,120.8,170.1z"/>
			<path class="st7" d="M133.2,267.2c-7.1,0-13.8-0.8-20.6-3.2c-9.4-4.7-15.6-11.7-18.3-21c-4.2-13.9,0.6-29.7,4.8-37
				c6.1-10.5,21.2-36.3,21.2-36.3c0.1-0.2,0.4-0.4,0.7-0.3c29.7,6.2,58.7,1.4,71-3.4c0.3-0.1,0.6,0,0.8,0.3
				c4.1,7.8,6.5,23.5,7.5,32.2c1.3,11.1,2,23.2,1.9,31.8c2-3.2,5.7-6.7,9.8-7.5c2.8-0.6,5.4,0.3,7.5,2.5
				c10.3,12.3-3.8,29.4-12.2,39.6c-0.2,0.2-0.4,0.3-0.7,0.2c-5.5-1.5-15.3-1.6-37.6-0.5c-5.9,0.3-11.3,0.8-16.5,1.2
				C145.6,266.7,139.2,267.2,133.2,267.2z M121.1,170.8c-1.9,3.3-15.3,26.2-21,35.9c-4.1,7.1-8.7,22.5-4.7,36
				c2.6,8.9,8.6,15.6,17.6,20.2c12.2,4.3,24.2,3.2,39.5,1.9c5.2-0.5,10.6-0.9,16.5-1.2c22.1-1.2,31.8-1.1,37.6,0.4
				c8.7-10.5,21.4-26.3,11.9-37.6c-1.8-1.9-3.9-2.6-6.3-2.1c-4.7,1-9,6.1-10.2,9.2c-0.1,0.3-0.4,0.5-0.7,0.4
				c-0.3-0.1-0.5-0.3-0.5-0.6c0.7-15.3-2.3-52.3-8.9-65.7C179.3,172.2,150.5,176.9,121.1,170.8z"/>
		</g>
		<g>
			<path class="st8" d="M166.6,263.4c21.2-0.2,30.9-23.1,24.4-46.8c-4.5-16.3-9.9-35.7-12.8-46.2c-5.9,1.1-12.8,2-20.3,2.4
				c-4.5,11.4-15.3,41.4-16.9,55C139.1,244.7,145.4,263.7,166.6,263.4z"/>
		</g>
		<path class="st9" d="M221.4,239.6c-3.2,3.9-7.7,6.1-12.5,7.3c-2.9,0.7-5.7,1.4-8,3.3c-1.9,1.5-3.4,3.5-5.2,5.2
			c-1.1,1-2.2,2.1-3.4,2.9c-1.2,0.7-2.4,1.2-3.7,1.6c-2.9,0.8-6,1.1-9.1,1.2c-3,0.1-6,0-9,0.3c-3,0.3-6.1,0.7-9.1,0.9
			c-3.1,0.1-6.3,0.1-9.3-0.7c-3-0.7-5.5-2.2-7.9-4.2c-2-1.7-3.8-3.6-6-4.8c-3.1-1.7-6.7-1.8-10.1-1.6c-3.5,0.2-7.5,0.8-10.8-0.8
			c-2.3-1.2-4.2-3.1-5.6-5.4c-2.5-4.2-3.5-9.4-2.8-14.3c-1.5,2.1-2.8,4.3-3.6,6.8c-0.9,2.8-1,5.7-0.5,8.6c0.1,0.3-0.3,0.7-0.6,0.5
			c-1.1-0.6-2.1-1.4-2.9-2.5c-1.7-2.3-2-5.3-2-8.1c0-3.3,0.7-6.6,1.5-9.8c0.8-3,1.8-6,2.9-8.9c0.5-1.3,1-2.5,1.5-3.8
			c0.6-1.7,1.2-3.5,1.9-5.2c0.4-0.9,0.9-2.2,1.9-2.7c1-0.5,1.8,0.5,2.3,1.2c1.1,1.7,1.7,3.7,2.6,5.6c0.8,1.6,1.7,3.2,2.9,4.5
			c2.2,2.6,5.2,4.3,8.5,4.9c4.2,0.8,8.6,0.1,12.6-1.4c3.9-1.4,7.3-3.7,10.6-6.3c1.7-1.3,3.3-2.8,5-4.1c1.5-1.1,3.1-2.1,4.8-3
			c3.1-1.9,6.6-4,8.1-7.6c0.5-1.2,0.5-2.3,0.5-3.6c-0.1-1.6-0.3-3.1-0.4-4.7c-0.1-1.5-0.3-3.1-0.2-4.6c0-1.2,0.2-2.5,0.8-3.4
			c1.1-1.5,3.7-1.7,4.7,0c0.5,0.9,0.6,2,0.7,3c0.1,1.3,0,2.5-0.2,3.8c-0.2,1.9-0.7,3.8-0.8,5.7c-0.1,1.7,0.1,3.6,1,5.2
			c0.7,1.2,1.8,2,3,2.6c1.4,0.8,3,1.3,4.4,2c1.7,0.8,3.3,1.7,4.8,2.8c3.1,2.3,6,4.9,9.3,6.9c2.3,1.4,4.8,2.2,7.3,2.3
			c-1-17.9-4-40.7-9-50.3c-11.9,4.6-41.2,9.7-71.4,3.4c0,0-15.1,25.8-21.2,36.3c-6.1,10.5-15.1,42.9,13.2,57
			c16.6,5.8,32.9,1.9,56.3,0.7s32.4-1,37.8,0.5c6.1-7.4,13.9-17.1,15.4-26.2C222,238.8,221.7,239.2,221.4,239.6z"/>
		<g>
			<path class="st7" d="M195.8,246.8c0.9-2.9,1.9-5.6,3.1-8.3c0.6-1.4,1.2-2.7,1.9-4c0.7-1.3,1.3-2.6,2.2-3.9
				c-0.3,1.5-0.8,2.9-1.2,4.3c-0.5,1.4-1,2.8-1.6,4.1c-0.6,1.4-1.2,2.7-1.9,4C197.5,244.3,196.7,245.6,195.8,246.8z"/>
			<path class="st7" d="M114,263.3c-2.3-2.5-4.3-5.2-5.9-8.2c-1.7-3-2.9-6.2-3.7-9.5c-0.7-3.3-0.8-6.9,0.3-10.3
				c0.5-1.7,1.4-3.3,2.5-4.6c1.1-1.4,2.5-2.5,4.1-3.3c1.6-0.8,3.3-1.3,5.1-1.4c1.8-0.1,3.6,0.3,5.2,1c3.2,1.4,5.9,3.7,8.1,6.3
				c4.5,5.2,7.8,11.1,10.4,17.3c-1.5-3-3.2-5.9-5-8.7c-1.8-2.8-3.8-5.5-6.1-8c-2.3-2.4-4.8-4.7-7.8-5.9c-1.5-0.6-3.1-0.9-4.7-0.8
				c-1.6,0.1-3.2,0.6-4.6,1.3c-2.9,1.4-5.1,4-6.1,7.1c-1,3.1-1,6.5-0.4,9.7c0.6,3.3,1.7,6.4,3.3,9.4
				C110,257.8,111.9,260.6,114,263.3z"/>
		</g>
		<g>
			<path class="st4" d="M120.5,269.2c0,0,3.2,6.5,8.2-0.2c3.5,2.2,7.4,1.5,8-1.5c4.1,1.3,5.8-3,3.2-7.3c-2.6-4.3-13.3-7.6-22-0.6
				C111,265.7,114.7,271.7,120.5,269.2z"/>
			<path class="st5" d="M124.2,272.5c-0.1,0-0.2,0-0.3,0c-1.9-0.2-3.2-2-3.6-2.7c-2.5,0.9-4.8,0.4-6-1.4c-1.1-1.8-1-5.3,3.3-8.9
				c5.7-4.6,11.5-4.4,14.5-3.9c3.6,0.6,6.7,2.4,8.1,4.6c1.5,2.5,1.7,5.3,0.5,6.9c-0.8,1.1-2.2,1.4-3.7,1.1c-0.3,1-1,1.8-2.1,2.3
				c-1.7,0.7-4,0.5-6.1-0.8C127.2,271.5,125.7,272.5,124.2,272.5z M120.5,268.8c0.2,0,0.3,0.1,0.4,0.2c0,0,1.2,2.4,3.1,2.6
				c1.4,0.1,2.8-0.8,4.3-2.8c0.1-0.2,0.4-0.2,0.6-0.1c1.9,1.2,4.1,1.6,5.7,0.9c0.9-0.4,1.5-1.1,1.7-2.1c0-0.1,0.1-0.2,0.2-0.3
				c0.1-0.1,0.2-0.1,0.3,0c1.4,0.4,2.5,0.2,3.2-0.7c0.9-1.1,1-3.4-0.5-6c-1.2-2-4.1-3.6-7.5-4.2c-2.8-0.5-8.4-0.7-13.8,3.7
				c-3.8,3.3-4.1,6.3-3.1,7.8c0.9,1.5,3,1.9,5.3,0.9C120.4,268.8,120.4,268.8,120.5,268.8z"/>
		</g>
		<path class="st4" d="M139,263.4c-0.7,0.3-1.4-0.2-2-0.6c-0.2,0.6-0.6,1.1-1,1.5c-2.1,1.8-6.6,1.7-7.8-1.1
			c-0.3,0.5-0.7,0.9-1.2,1.2c-1.3,0.8-3.1,1.1-4.5,0.6c-1.1-0.4-1.8-1.2-2-2.2c-0.3,0.5-0.7,0.9-1.3,1.1c-1.4,0.7-3.2,0.2-4.1-1.1
			c-2.8,4.7,0.6,8.3,5.3,6.3c0,0,3.2,6.5,8.2-0.2c3.5,2.2,7.4,1.5,8-1.5c3.7,1.2,5.4-2.2,3.8-6C140.2,262.3,139.8,263.1,139,263.4z"
			/>
		<g>
			<path class="st5" d="M123.1,259.9c-1.1,1.3-2,2.8-2.5,4.3c-0.2,0.8-0.4,1.6-0.4,2.4c0,0.8,0.1,1.7,0.2,2.5
				c-0.4-0.8-0.8-1.6-0.9-2.5c-0.1-0.9,0-1.8,0.2-2.7c0.3-0.9,0.7-1.7,1.3-2.4C121.6,260.9,122.3,260.3,123.1,259.9z"/>
			<path class="st5" d="M129.5,260.1c-0.7,1.4-1.2,2.9-1.4,4.4c-0.1,0.7-0.1,1.5,0,2.2c0.1,0.8,0.3,1.5,0.5,2.3
				c-0.5-0.6-0.9-1.3-1.1-2.2c-0.1-0.4-0.2-0.8-0.2-1.2c0-0.4,0-0.8,0-1.3c0.1-0.8,0.3-1.6,0.7-2.4
				C128.4,261.3,128.9,260.6,129.5,260.1z"/>
			<path class="st5" d="M135.8,260.7c0.5,0.4,0.9,0.9,1.2,1.5c0.3,0.6,0.5,1.2,0.5,1.8c0.1,0.6,0.1,1.3-0.1,1.9
				c-0.1,0.6-0.4,1.2-0.8,1.7c0-0.6,0.1-1.2,0.1-1.8c0-0.6,0-1.1-0.1-1.7C136.6,262.9,136.2,261.9,135.8,260.7z"/>
		</g>
		<g>
			<path class="st4" d="M208.8,265.6c0,0,2.5,5.2,7.2,0.5c3.1,3.1,6.6-0.1,6.7-1.4c2.5,1.4,4.9-3.3,0.2-6.9
				c-4.7-3.6-13.6-3.8-18.6-1.4C197.4,259.4,196,267.4,208.8,265.6z"/>
			<path class="st5" d="M212.3,268.5c-0.2,0-0.4,0-0.6,0c-1.7-0.3-2.7-1.8-3.1-2.4c-7.8,1.1-9.4-1.6-9.7-2.8
				c-0.7-2.5,1.6-5.6,5.3-7.2c5-2.4,14.2-2.3,19,1.4c2.9,2.3,3.4,5.2,2.3,6.8c-0.6,0.9-1.6,1.3-2.5,1c-0.4,0.8-1.3,1.8-2.6,2.2
				c-0.9,0.3-2.6,0.7-4.4-0.8C214.7,267.9,213.5,268.5,212.3,268.5z M208.8,265.2c0.2,0,0.3,0.1,0.4,0.2c0,0,0.9,1.9,2.6,2.2
				c1.2,0.2,2.5-0.4,3.9-1.8c0.1-0.1,0.2-0.1,0.3-0.1c0,0,0,0,0,0c0.1,0,0.2,0,0.3,0.1c1.4,1.4,2.9,1.3,3.8,0.9
				c1.4-0.5,2.2-1.6,2.2-2c0-0.1,0.1-0.3,0.2-0.3c0.1-0.1,0.3-0.1,0.4,0c0.8,0.5,1.5,0,1.9-0.5c0.7-1.1,0.8-3.5-2.1-5.7
				c-4.6-3.6-13.4-3.6-18.2-1.3c-3.3,1.4-5.4,4.2-4.8,6.2C200.2,265.1,203.6,265.9,208.8,265.2C208.8,265.2,208.8,265.2,208.8,265.2
				z"/>
		</g>
		<path class="st4" d="M223.5,260.3c-0.8,0.2-1.6,0.1-2.3-0.3c0,0.5-0.2,1-0.5,1.4c-0.5,0.6-1.3,0.8-2.1,0.7c-1.4-0.1-2.9-0.9-3.9-2
			c0,0.5-0.2,0.9-0.4,1.4c-0.6,1.2-2,1.9-3.3,1.7c-1-0.2-1.6-0.8-1.6-1.7c-0.6,0.4-1.3,0.6-2,0.7c-2,0.1-4.2-0.8-5.6-2.2
			c-0.4-0.4-0.7-0.8-0.9-1.3c-3.4,3.5-2.3,8.4,7.9,6.9c0,0,2.5,5.2,7.2,0.5c3.1,3.1,6.6-0.1,6.7-1.4c2.1,1.1,4-1.8,2.1-4.9
			C224.4,260,224,260.2,223.5,260.3z"/>
		<g>
			<path class="st5" d="M209.7,259.1c0.4,1.1,0.5,2.2,0.4,3.4c-0.1,0.6-0.1,1.1-0.3,1.7c-0.2,0.5-0.5,1.1-1,1.4
				c0.3-0.5,0.3-1,0.4-1.6l0.1-1.6C209.4,261.3,209.5,260.2,209.7,259.1z"/>
			<path class="st5" d="M213,257.5c0.8,0.3,1.6,0.8,2.2,1.3c0.6,0.6,1.2,1.3,1.5,2.2c0.2,0.4,0.2,0.9,0.3,1.3c0,0.5,0.1,0.9-0.1,1.3
				c-0.1,0.9-0.5,1.7-1,2.4c0.2-0.8,0.4-1.6,0.4-2.4c0-0.8-0.1-1.6-0.4-2.3C215.4,259.9,214.3,258.7,213,257.5z"/>
			<path class="st5" d="M219.1,257.9c0.6,0.3,1.2,0.7,1.7,1.1c0.5,0.5,1,1,1.4,1.6c0.4,0.6,0.7,1.3,0.8,2c0.1,0.7,0,1.5-0.3,2.1
				c0-0.7-0.1-1.3-0.3-1.9c-0.2-0.6-0.5-1.1-0.9-1.7C220.8,260,220,259,219.1,257.9z"/>
		</g>
		<g>
			<path class="st6" d="M186.3,45.7c0,0,11.5-42.1,51.4-33.7c40.6,8.5,35.4,74-8.9,98.2C228.8,110.1,209.3,58.3,186.3,45.7z"/>
			<path class="st7" d="M228.8,110.8c-0.1,0-0.1,0-0.2,0c-0.2-0.1-0.3-0.2-0.4-0.4c-0.2-0.5-19.6-51.8-42.2-64.1
				c-0.3-0.1-0.4-0.4-0.3-0.7c0-0.1,3-10.8,10.9-20.2c7.3-8.8,20.4-18.3,41.3-13.9c15,3.1,25.1,14.4,27.5,30.9
				c3.3,22.3-8.1,53-36.3,68.4C229,110.8,228.9,110.8,228.8,110.8z M187,45.4c9.5,5.4,19.5,17.8,29.7,37c6.7,12.5,11.3,24,12.4,26.9
				c27.2-15.2,38.2-45,35-66.7c-2.4-16-12-26.9-26.5-29.9c-16.3-3.4-29.8,1.1-40,13.5C190.8,34.2,187.7,43.2,187,45.4z"/>
		</g>
		<g class="st10">
			<path class="st6" d="M248.1,87c5.6-7.5,13.1-20.3,5.3-42.8C238.7,12,213.6,35.6,214,21.8c0.1-4.6,2.2-7.8,5.5-10.1
				c-25.4,5.2-33.2,34-33.2,34c23,12.6,42.5,64.5,42.5,64.5c7.1-3.9,13.2-8.9,18.3-14.5C245.9,93.1,246.1,89.7,248.1,87z"/>
		</g>
		<path class="st11" d="M200.9,64c0,0,4.2-29.9,27.9-30.1c23.7-0.3,38.5,45.8-6.4,70.1L200.9,64z"/>
		<path class="st12" d="M220.7,86.7c3.7-2.3,6.1-5.8,7.4-9.9c0.9-2.8,1.4-5.8,1.3-8.8c-0.1-3.1-1.1-5.9-2.6-8.5
			c-1.6-2.7-3.5-5.2-4.7-8.2c-0.8-2.1-1.2-4.3-0.9-6.5c0.6-4.1,3.6-7.3,7.1-9.1c1.2-0.6,2.5-1.1,3.8-1.5c-1.1-0.2-2.2-0.3-3.3-0.3
			C205.1,34.1,200.9,64,200.9,64l13.5,25.2C216.7,88.6,218.8,87.8,220.7,86.7z"/>
		<g>
			<path class="st6" d="M107.6,51.8c0,0,15.4-20,47-18.3c31.6,1.7,50.7,21.8,62,44.5c6.9,16.7,9.1,19.8,13,28.2
				c3.9,8.4,17.3,39.4-25.1,58.9c-35.2,15.1-75.4,15.1-100.8,0.3c-16.5-10.6-18.4-24-19.5-33.2c0,0-9.5-6.1-25.1-11.4
				S24,102.5,26.8,73.5c2.8-29,22.3-40.5,38.5-43C81.5,28,100,37.7,107.6,51.8z"/>
			<path class="st7" d="M150.3,177c-17.6,0-34.1-3.7-46.8-11.1C86.6,155,84.7,141,83.7,132.5c-1.6-1-10.7-6.5-24.7-11.2
				c-13.5-4.6-35.8-16.9-32.8-47.8c3.4-35.3,30.7-42.3,39-43.5c15.9-2.5,34.4,6.6,42.5,20.8c1.4-1.6,5.1-5.4,11.2-9.2
				c7.2-4.4,19.2-9.5,35.7-8.6c27.4,1.5,48.4,16.5,62.5,44.8c4.8,11.6,7.3,16.6,9.7,21.4c1.1,2.2,2.1,4.2,3.3,6.8
				c5.6,12.1,6.7,23.2,3.1,33c-4,10.9-13.6,19.9-28.5,26.8C187.2,173.2,168.1,177,150.3,177z M70.5,30.7c-1.7,0-3.5,0.1-5.2,0.4
				c-8.1,1.3-34.7,8-38,42.4c-2.9,30.1,18.8,42,32,46.5c15.5,5.3,25.2,11.4,25.3,11.5c0.2,0.1,0.3,0.3,0.3,0.5
				c1,8.3,2.7,22.1,19.3,32.8c25.2,14.7,65.5,14.5,100.2-0.3c14.6-6.7,24-15.5,27.8-26c3.5-9.5,2.5-20.3-3-32
				c-1.2-2.6-2.2-4.6-3.3-6.8c-2.4-4.8-5-9.8-9.7-21.4c-13.9-27.8-34.6-42.7-61.5-44.1c-16.2-0.9-28,4.1-35,8.4
				c-7.6,4.7-11.4,9.6-11.5,9.7c-0.1,0.2-0.3,0.3-0.6,0.2c-0.2,0-0.4-0.1-0.5-0.3C100.2,39.4,84.9,30.7,70.5,30.7z"/>
		</g>
		<path class="st13" d="M79.6,53.9c0,0-29.8-12.7-40.8,12c-10.2,24.1,9.2,51,45.4,59.7C87.2,108.5,101.4,72.5,79.6,53.9z"/>
		<path class="st14" d="M164.2,103.6c0,0,5-4.5,14.8-1C176,98.2,167.7,96.4,164.2,103.6z"/>
		<path class="st13" d="M119.3,80.8c0,0,6.2-7.1,11.7-8.7c5.5-1.7,8-2.5,5.5-6.2C133.9,62.2,122.8,59.4,119.3,80.8z"/>
		<path class="st13" d="M204.2,68.6c0,0-5.5-4.6-10.5-2.6c-5,2-7,2.4-7.9-2.8C184.9,57.9,194.4,53.3,204.2,68.6z"/>
		<g>
			<path class="st8" d="M159.9,116.5c-38.5,15.6-27.7,47.6-22.2,59.2c21,2.3,44.9-1.3,66.9-10.7c1.1-0.5,0.7-0.4,1.7-0.9
				C222.5,117.6,189.7,105.4,159.9,116.5z"/>
		</g>
		<g>
			<path class="st15" d="M172.5,122.4c2.9,0,3.6,10-5.2,12.2c-8.8,2.2-10.1-2.7-10.1-2.7s-0.6,6.3,4.8,7.2
				c2.7,14,6.7,20.3,13.2,19.8c6.5-0.6,7.4-13.6,6.9-24.6c6.9,2.2,11-5.8,11-5.8s-10.2,5.6-11.9-0.6c-1.7-6.1,0-5.6,3-7.6
				c2.4-1.7,5-3,5.2-6.9c-8.2-1.7-17.8-0.9-27.1,2.2C162.6,118,164.5,121.6,172.5,122.4z"/>
		</g>
		<g>
			<path class="st16" d="M128,127.9c2,5-3.3,11.7-11.8,15.1c-8.5,3.4-17,2.1-19-2.8c-2-5,3.3-11.7,11.8-15.1
				C117.5,121.7,126,123,128,127.9z"/>
			<path class="st17" d="M121.9,126.1c0.4,1.4-1.8,3.2-4.7,4c-3,0.7-5.7,0.2-6-1.3c-0.4-1.4,1.8-3.2,4.7-4
				C118.8,124.1,121.5,124.7,121.9,126.1z"/>
		</g>
		<g>
			
				<ellipse transform="matrix(0.9285 -0.3713 0.3713 0.9285 -27.8449 89.7289)" class="st16" cx="219.1" cy="117.2" rx="12" ry="7"/>
			<path class="st17" d="M225.9,111.4c0.3,1-1.3,2.3-3.4,2.9c-2.2,0.5-4.1,0.1-4.4-0.9c-0.3-1,1.3-2.3,3.4-2.9
				C223.6,109.9,225.6,110.4,225.9,111.4z"/>
		</g>
		<path class="st18" d="M177,119.9c0,0-1.4,8.5,3.1,11.5c-0.2,20-0.6,23.9-5.7,24.2c-5.1,0.4-9.6-9.6-11-17.4
			c6.9,0,12.7-4.2,13.2-9.6C176.7,122.2,177,119.9,177,119.9z"/>
		<path class="st7" d="M190.9,130.5c-1.7,1.1-3.5,2-5.5,2.4c-1,0.2-2.1,0.2-3.1,0c-1-0.2-2-0.8-2.8-1.5c-1.5-1.5-2.3-3.5-2.7-5.5
			c-0.4-2-0.6-4-0.5-6.1c0-0.3,0.3-0.6,0.6-0.6c0.3,0,0.6,0.3,0.6,0.6l0,0c0.2,2.7,0.2,5.5-0.2,8.2c-0.2,1.4-0.6,2.8-1.3,4
			c-0.8,1.2-1.8,2.2-2.9,3.1c-2.2,1.7-4.7,3-7.5,3.2c-1.4,0.1-2.8-0.2-4-0.8c-1.2-0.7-2.2-1.7-2.9-2.8c0.8,1.1,1.9,2,3.1,2.5
			c1.2,0.5,2.5,0.7,3.8,0.5c2.6-0.3,5-1.7,7-3.4c1-0.9,1.9-1.8,2.6-2.9c0.6-1,0.9-2.4,1.1-3.6c0.4-2.6,0.3-5.3,0.2-7.9l1.2,0
			c-0.1,1.9,0,3.9,0.4,5.8c0.4,1.9,1,3.7,2.2,5.1c0.6,0.7,1.4,1.2,2.3,1.4c0.9,0.3,1.9,0.3,2.8,0.2
			C187.3,132.1,189.1,131.4,190.9,130.5z"/>
		<path class="st11" d="M84.4,123.5c0,0,12.7-37.6,3.3-58.8c-9.3-21.2-40.2-18.2-42.4,5.6C43.1,94.1,59.4,115.7,84.4,123.5z"/>
		<path class="st12" d="M61.5,57.2c2.8,0.9,6.1,2.3,7.6,5.1c1.1,2.2,0.9,4.8,0.3,7.1c-0.7,2.9-1.8,5.6-2.6,8.4
			c-1,3.3-1.6,6.7-1.3,10.1c0.3,3.2,1.4,6.2,3.4,8.8c2.1,2.7,5,4.5,8,6.1c3.6,1.9,7.9,3.3,12,2.3c0.1,0,0.1,0,0.2,0
			c2.3-12.5,3.7-28.8-1.3-40.3c-7.6-17.3-29.4-18.5-38.5-5.6C53,57,57.3,55.9,61.5,57.2z"/>
		<path class="st7" d="M85.6,138.6c-0.8-2.2-1.1-4.6-1.2-7c-0.2-2.4-0.1-4.7,0-7.1c0.3-4.7,1.1-9.4,2-14c0.5-2.3,1.1-4.6,1.6-6.9
			c0.6-2.3,1.1-4.5,1.5-6.9c0.8-4.6,1.1-9.3,1-14c-0.1-4.7-0.7-9.3-2-13.8c-1.4-4.4-3.6-8.6-6.9-11.9c-3.3-3.3-7.7-5.3-12.3-6.1
			c-4.6-0.8-9.4-0.5-14,0.2c4.6-1,9.4-1.5,14.1-0.8c4.7,0.7,9.3,2.7,12.8,6c3.6,3.3,5.9,7.7,7.3,12.2c1.5,4.6,2.1,9.3,2.2,14.1
			c0.1,4.8-0.3,9.5-1.1,14.2c-0.4,2.3-0.9,4.7-1.6,6.9c-0.6,2.3-1.2,4.5-1.7,6.8c-1.1,4.6-1.9,9.2-2.3,13.9c-0.2,2.3-0.4,4.7-0.3,7
			C84.8,134,84.9,136.4,85.6,138.6z"/>
		<path class="st7" d="M159.6,107.9c1-1.7,2.3-3.2,4-4.3c1.6-1.2,3.5-2,5.5-2.4c0.5-0.1,1-0.2,1.5-0.2c0.5-0.1,1-0.1,1.5-0.1
			l1.5,0.1c0.5,0.1,1,0.2,1.5,0.2l0.7,0.1l0.7,0.2l1.4,0.5c0.9,0.4,1.8,0.8,2.6,1.3c-1-0.2-1.9-0.5-2.8-0.7l-1.4-0.2l-0.7-0.1
			l-0.7-0.1c-0.5,0-0.9-0.1-1.4-0.1l-1.4,0c-0.5,0-0.9,0-1.4,0.1c-0.5,0.1-0.9,0.1-1.4,0.2c-1.8,0.3-3.6,1.1-5.2,2
			C162.5,105.4,161,106.6,159.6,107.9z"/>
		<g>
			<path class="st19" d="M150.4,98.5c-0.4,12.5-9.6,19.6-17.6,19.6c-7.9,0-12.9-8.2-12.9-18.7s6.8-20.8,15.3-21.3
				C144.8,77.6,150.8,87.2,150.4,98.5z"/>
			<path class="st15" d="M151.3,100.5c-0.4,12.5-9.6,19.6-17.6,19.6s-12.9-8.2-12.9-18.7c0-10.4,6.8-20.8,15.3-21.3
				C145.7,79.6,151.6,89.2,151.3,100.5z"/>
			<path class="st20" d="M149.3,101c-0.4,11.6-8.9,18.2-16.3,18.2c-7.4,0-12-7.6-12-17.3c0-9.7,6.3-19.3,14.2-19.8
				C144.1,81.6,149.6,90.6,149.3,101z"/>
		</g>
		<g>
			<ellipse class="st21" cx="135.1" cy="100.6" rx="12.7" ry="16.6"/>
			<path class="st19" d="M146.4,100.4c0,8.1-5,14.6-11.2,14.6c-6.2,0-11.2-6.6-11.2-14.6c0-8.1,5-14.6,11.2-14.6
				C141.3,85.8,146.4,92.3,146.4,100.4z"/>
			<path class="st22" d="M143.3,100.4c0,5.9-3.7,10.7-8.2,10.7c-4.5,0-8.2-4.8-8.2-10.7c0-5.9,3.7-10.7,8.2-10.7
				C139.7,89.7,143.3,94.5,143.3,100.4z"/>
			<path class="st21" d="M144,97c0,0,1.5,12.4-8.6,14C142.1,114.3,146.9,103.6,144,97z"/>
			<ellipse class="st23" cx="130.1" cy="93.6" rx="4.1" ry="5.4"/>
			<path class="st23" d="M146.3,109.2c0,1.4-0.9,2.6-2,2.6c-1.1,0-2-1.2-2-2.6c0-1.4,0.9-2.6,2-2.6
				C145.4,106.6,146.3,107.8,146.3,109.2z"/>
		</g>
		<g>
			<path class="st19" d="M215.5,88.9c2,12.3-5.7,21.1-13.4,22.7c-7.8,1.5-14.3-5.6-16.3-15.8c-2-10.2,2.6-21.7,10.8-23.8
				C206,69.5,213.7,77.8,215.5,88.9z"/>
			<path class="st15" d="M216.7,90.7c2,12.3-5.7,21.1-13.4,22.7c-7.8,1.5-14.3-5.6-16.3-15.8c-2-10.2,2.6-21.7,10.8-23.8
				C207.2,71.3,214.9,79.6,216.7,90.7z"/>
			<path class="st20" d="M214.9,91.6c1.9,11.4-5.3,19.6-12.5,21.1c-7.2,1.4-13.3-5.2-15.1-14.7s2.4-20.2,10.1-22.2
				C206,73.6,213.2,81.3,214.9,91.6z"/>
		</g>
		<g>
			
				<ellipse transform="matrix(0.9879 -0.1551 0.1551 0.9879 -12.1319 32.2516)" class="st21" cx="200.6" cy="93.9" rx="12.7" ry="16.6"/>
			
				<ellipse transform="matrix(0.9879 -0.1551 0.1551 0.9879 -12.1034 32.2448)" class="st19" cx="200.6" cy="93.7" rx="11.2" ry="14.6"/>
			
				<ellipse transform="matrix(0.9879 -0.1551 0.1551 0.9879 -12.1034 32.2446)" class="st22" cx="200.6" cy="93.7" rx="8.2" ry="10.7"/>
			<path class="st21" d="M208.8,88.9c0,0,3.4,12-6.3,15.2C209.6,106.3,212.7,95,208.8,88.9z"/>
			<path class="st23" d="M198.6,87.2c0.5,2.9-1,5.6-3.2,5.9c-2.2,0.4-4.4-1.7-4.9-4.7c-0.5-2.9,1-5.6,3.2-5.9S198.1,84.2,198.6,87.2
				z"/>
			<path class="st23" d="M213,100.7c0.2,1.4-0.5,2.7-1.6,2.9c-1.1,0.2-2.1-0.8-2.4-2.3c-0.2-1.4,0.5-2.7,1.6-2.9
				C211.7,98.2,212.7,99.3,213,100.7z"/>
		</g>
		<g>
			<path class="st24" d="M170.6,144.9c-2,0.5-3.3,1.6-4.2,2.8c2.1,4.5,5,8.1,8,7.9c2.7-0.2,4.1-1.4,4.8-5.5
				C177.7,146.7,174.9,143.9,170.6,144.9z"/>
			<path class="st25" d="M176.9,121.9C176.9,121.9,176.8,121.9,176.9,121.9c-0.4,0-0.7-0.3-0.6-0.7c0.1-0.9,0.1-1.4,0.2-1.5
				c0.1-0.3,0.4-0.6,0.7-0.5c0.3,0.1,0.6,0.4,0.5,0.7c0,0-0.1,0.4-0.1,1.4C177.5,121.6,177.2,121.9,176.9,121.9z"/>
		</g>
		<g>
			<g>
				<path class="st26" d="M151,131.1c0.1,0.5,0.5,0.8,0.9,0.7c0.5-0.1,0.8-0.5,0.7-0.9c-0.1-0.5-0.5-0.8-0.9-0.7
					C151.3,130.3,150.9,130.7,151,131.1z"/>
				<path class="st26" d="M147.1,128.5c0.1,0.5,0.5,0.8,0.9,0.7c0.5-0.1,0.8-0.5,0.7-0.9c-0.1-0.5-0.5-0.8-0.9-0.7
					C147.4,127.6,147,128,147.1,128.5z"/>
				<path class="st26" d="M149.4,124.2c0.1,0.5,0.5,0.8,0.9,0.7c0.5-0.1,0.8-0.5,0.7-0.9c-0.1-0.5-0.5-0.8-0.9-0.7
					C149.7,123.4,149.4,123.8,149.4,124.2z"/>
			</g>
			<path class="st27" d="M151.8,131c-2.8,0-5.6,0.2-8.4,0.4c-2.8,0.2-5.6,0.4-8.4,0.7c-5.6,0.6-11.2,1.4-16.7,2.7
				c-5.5,1.2-10.9,2.7-16.2,4.7c-5.2,2-10.3,4.7-14.8,8.1c2.1-1.8,4.5-3.4,6.9-4.9c2.4-1.4,5-2.6,7.6-3.7c5.2-2.2,10.7-3.7,16.2-5
				c5.5-1.2,11.1-2,16.8-2.5C140.5,131,146.2,130.8,151.8,131z"/>
			<path class="st27" d="M147.9,128.4c-3.2-0.3-6.4-0.5-9.6-0.5c-3.2-0.1-6.4-0.1-9.6,0c-6.4,0.2-12.8,0.6-19.1,1.6
				c-6.3,0.9-12.6,2.3-18.7,4.4c-6,2.1-11.8,5-17,8.8c2.5-2.1,5.2-3.8,8-5.4c2.8-1.6,5.8-2.8,8.8-4c6.1-2.2,12.4-3.6,18.7-4.6
				c6.4-0.9,12.8-1.3,19.2-1.4C135.1,127.2,141.6,127.5,147.9,128.4z"/>
			<path class="st27" d="M150.3,124.1c-3.1-0.1-6.2-0.3-9.4-0.3c-3.1-0.1-6.2-0.1-9.4,0c-6.2,0.1-12.5,0.3-18.7,0.8
				c-3.1,0.3-6.2,0.6-9.3,1c-3.1,0.4-6.2,1-9.2,1.6c-3,0.6-6.1,1.5-9,2.5c-3,1-5.8,2.2-8.5,3.8c5.3-3.4,11.3-5.4,17.4-6.9
				c6.1-1.4,12.3-2.3,18.6-2.8c6.2-0.5,12.5-0.7,18.8-0.7C137.8,123.3,144,123.5,150.3,124.1z"/>
		</g>
		<path class="st19" d="M117.4,78.4c0,0,6.2-7.1,11.7-8.7c5.5-1.7,8-2.5,5.5-6.2C132.1,59.8,120.9,57,117.4,78.4z"/>
		<path class="st19" d="M202.4,66.2c0,0-5.5-4.6-10.5-2.6c-5,2-7,2.4-7.9-2.8C183,55.5,192.5,50.9,202.4,66.2z"/>
		<g>
			<path class="st28" d="M174.3,108.1c0,0-11.3,1.2-10.1,6.7c1.2,4.9,10,6.9,12.7,6.6c2.7-0.3,10-5.1,9.7-10
				C186.2,106.5,175.5,108,174.3,108.1z"/>
			<path class="st29" d="M182.2,109.9c0,0-4.7-0.2-13.2,3.1c-3.5,1.7-3.2-3.7,5.4-4.6C181.5,107.8,184.1,109.4,182.2,109.9z"/>
			<path class="st30" d="M173.4,109.9c0.2,0.7-0.9,1.7-2.5,2.2c-1.6,0.5-3,0.2-3.2-0.5c-0.2-0.7,0.9-1.7,2.5-2.2
				C171.8,109,173.2,109.2,173.4,109.9z"/>
			<g class="st31">
				<path class="st32" d="M186.6,111.4c-0.1-2.1-2.1-3-4.5-3.3c2.1,1.2,3,2.8,1.7,5.1c-2,3.5-7.4,8.8-15.5,4.2
					c-2.8-1.6-3.9-3.1-4-4.5c-0.2,0.6-0.3,1.2-0.1,1.9c1.2,4.9,10,6.9,12.7,6.6C179.6,121,186.9,116.3,186.6,111.4z"/>
			</g>
		</g>
		<path class="st14" d="M235.5,14.1c0,0,31.6,6.9,26.1,49.9C260.6,76.6,277.9,18.8,235.5,14.1z"/>
		<path class="st14" d="M59,37.7c0,0-31.6,6.9-26.1,49.9C33.9,100.2,16.6,42.3,59,37.7z"/>
		<g>
			<path class="st9" d="M83.1,37.7C97.7,46.1,104,59.7,104,69.1c3.9-11.4,16.7-28.7,34.6-34.5c-20.8,4.1-30.9,17.3-30.9,17.3
				C100,37.7,81.5,28,65.3,30.5c-4.2,0.7-8.7,1.9-13.1,4C61.4,31.9,72.3,31.6,83.1,37.7z"/>
			<path class="st9" d="M177.2,165c-100.5,17.9-88.3-62.9-88.3-62.9c-6.9,24.4-3.3,36.5-3.3,36.5l-0.3,0.2
				c1.7,8.3,5.7,18.3,18.5,26.5c25.4,14.8,65.6,14.8,100.8-0.3c37.5-17.3,31.4-43.5,26.7-55.1C238.4,136.5,222.1,155.5,177.2,165z"
				/>
		</g>
		<g>
			<path class="st6" d="M117.2,171.4c0,0,10.8,4.3,25,4.3c9.6-6,17.5-2.2,17,4.8c4.6,2.6,2.2,7.4,2.2,7.4s6,8.4-4.3,11.5
				c-6.5,2.4-9.6,13.2-25,13.7C116.7,213.6,110.7,193.7,117.2,171.4z"/>
			<path class="st7" d="M131.5,213.8c-4.9,0-9.1-2.1-12.2-6c-6-7.7-7.1-21.8-2.8-36.6c0.1-0.2,0.2-0.3,0.3-0.4
				c0.2-0.1,0.3-0.1,0.5,0c0.1,0,10.8,4.2,24.5,4.3c5.3-3.3,10.6-3.9,14.3-1.7c2.4,1.4,3.7,3.9,3.6,6.8c3.4,2.2,3,5.8,2.2,7.7
				c0.6,1,2.4,4.2,1.3,7.3c-0.8,2.3-2.8,3.9-6.2,4.9c-2.1,0.8-3.8,2.5-5.9,4.5c-4,3.9-8.9,8.9-19.3,9.2
				C131.9,213.8,131.7,213.8,131.5,213.8z M117.6,172.2c-4,14.2-2.9,27.5,2.7,34.8c2.9,3.8,7,5.7,11.7,5.5c9.8-0.3,14.6-5,18.4-8.8
				c2.1-2.1,4-4,6.3-4.8c3-0.9,4.8-2.3,5.4-4.1c1-3-1.3-6.4-1.4-6.4c-0.1-0.2-0.2-0.4-0.1-0.6c0.1-0.2,2.1-4.3-1.9-6.6
				c-0.2-0.1-0.3-0.4-0.3-0.6c0.2-2.6-0.9-4.8-3-6c-3.3-2-8.2-1.3-13.1,1.8c-0.1,0.1-0.2,0.1-0.3,0.1
				C130,176.3,120.1,173.1,117.6,172.2z"/>
		</g>
		<g>
			<path class="st6" d="M206.2,164.1c0,0,12.1,11.2,9.1,31.3c-3.2,17.7-14.9,20.1-23.3,10.4c-7.1-7.6-9.3-9.5-13-10.4
				s-4.7-7.6-0.7-10c-3-3.2-0.4-6.3,1.5-7.1c-2.4-5.2,3-8.7,9.5-7.4C198.4,167.8,206.2,164.1,206.2,164.1z"/>
			<path class="st7" d="M202.5,212c-3.7,0-7.5-2-10.8-5.8c-7.1-7.6-9.2-9.3-12.7-10.2c-1.9-0.5-3.3-2.2-3.7-4.6
				c-0.4-2.4,0.5-4.8,2.1-6.2c-1.1-1.5-1.2-2.9-1-3.8c0.3-1.6,1.5-2.8,2.6-3.4c-0.7-1.9-0.5-3.8,0.7-5.3c1.8-2.3,5.6-3.3,9.6-2.5
				c8.9-2.9,16.6-6.6,16.7-6.7c0.2-0.1,0.5-0.1,0.7,0.1c0.1,0.1,12.3,11.7,9.3,31.9c-1.6,9-5.5,14.7-10.9,16.2
				C204.2,211.9,203.4,212,202.5,212z M186.7,171.2c-2.6,0-4.8,0.8-6,2.3c-1,1.2-1.1,2.8-0.3,4.5c0.1,0.2,0.1,0.3,0,0.5
				s-0.2,0.3-0.4,0.4c-0.9,0.4-2.1,1.5-2.4,2.8c-0.2,1.1,0.1,2.2,1.1,3.3c0.1,0.1,0.2,0.3,0.2,0.5c0,0.2-0.1,0.4-0.3,0.5
				c-2,1.2-2.4,3.6-2.1,5.3c0.3,1.9,1.3,3.2,2.7,3.6c4,1,6.4,3.2,13.3,10.6c3.8,4.3,8.2,6.2,12.2,5.1c4.8-1.3,8.5-6.9,10-15.2
				c2.6-17.8-6.8-28.5-8.6-30.4c-1.7,0.8-8.7,4-16.6,6.6c-0.1,0-0.2,0-0.3,0C188.3,171.3,187.5,171.2,186.7,171.2z"/>
		</g>
		<g class="st10">
			<path class="st9" d="M156,195.5c-8.8,0.9-8.9,12.1-24.4,12.4c-14.3,0.5-13.5-18.3-10.3-24.7c3.2-6.5,10.9-8.1,15.7-1.7
				c1.9-2.2,3.8-4.6,6-6.3c-0.3,0.2-0.6,0.3-0.9,0.5c-14.2,0-25-4.3-25-4.3c-6.5,22.3-0.5,42.2,14.9,41.8
				c15.4-0.5,18.5-11.3,25-13.7c6.1-1.9,6.5-5.6,5.8-8.3C162,193.1,160.2,195.1,156,195.5z"/>
		</g>
		<g>
			<path class="st33" d="M213.1,203c1.1-1.8,1.9-4.3,2.3-7.6C214.8,198.3,214.1,200.9,213.1,203z"/>
			<path class="st9" d="M194.8,201.6c-3.1-4.1-3.2-5.7-10.3-7.8c-7.1-2.2-4.8-8,0.2-9.2c-1.7-0.9-3.7-0.3-3.7-3.5c0-3.2,3.8-4,3.8-4
				c-3.2,0.5-4.3-3.2-0.2-5.7c5.4-2.8,15.5,7.2,15.5,7.2s-1.7-4.6,1.7-10c2-2.4,4.5-2.5,6.7-1.9c-1.3-1.7-2.3-2.6-2.3-2.6
				s-7.8,3.8-16.9,6.7c-6.5-1.3-11.9,2.2-9.5,7.4c-1.9,0.7-4.5,3.9-1.5,7.1c-3.9,2.4-3,9.1,0.7,10c3.7,0.9,6,2.8,13,10.4
				c7,8.1,16.3,7.7,21-2.8C208.1,211.3,197.3,205,194.8,201.6z"/>
		</g>
		<g>
			<path class="st7" d="M142.8,175.1c-1.8,2.1-3.4,4.2-4.8,6.5c-0.7,1.1-1.4,2.3-2,3.5c-0.6,1.2-1.1,2.5-1.6,3.8
				c0-1.4,0.2-2.8,0.7-4.1c0.1-0.3,0.2-0.7,0.4-1c0.1-0.3,0.3-0.7,0.4-1c0.3-0.6,0.6-1.3,1-1.8c0.8-1.2,1.6-2.3,2.6-3.3
				C140.5,176.7,141.6,175.8,142.8,175.1z"/>
			<path class="st7" d="M149.8,181.7c0.5-0.7,1.2-1.2,2-1.6c0.8-0.4,1.6-0.7,2.5-0.8c0.9-0.1,1.8-0.1,2.6,0.1
				c0.8,0.2,1.6,0.6,2.3,1.1c-0.9,0-1.6-0.2-2.4-0.1c-0.8,0-1.5,0-2.3,0.1C152.9,180.7,151.4,181.1,149.8,181.7z"/>
			<path class="st7" d="M151.7,188.9c0.6-0.6,1.4-1.1,2.1-1.4c0.8-0.4,1.6-0.6,2.5-0.8c0.9-0.1,1.8-0.2,2.6,0
				c0.9,0.2,1.7,0.6,2.3,1.2c-0.9-0.1-1.6-0.2-2.4-0.2c-0.8,0-1.6,0.1-2.3,0.2C155,188.2,153.4,188.6,151.7,188.9z"/>
		</g>
		<g>
			<path class="st7" d="M178.3,185.3c0.5-0.6,1.1-0.9,1.8-1.2c0.7-0.2,1.4-0.3,2.2-0.3c0.7,0,1.4,0.2,2.1,0.4
				c0.7,0.2,1.3,0.6,1.9,1.1c-0.7,0-1.4-0.1-2.1-0.1c-0.7,0-1.3-0.1-2-0.1C181,185,179.8,185.1,178.3,185.3z"/>
			<path class="st7" d="M179.8,178.2c0.6-0.5,1.2-0.9,1.9-1.2c0.7-0.3,1.4-0.5,2.2-0.6c1.5-0.2,3.1,0.1,4.3,1c-0.8,0-1.4,0-2.1,0.1
				c-0.7,0.1-1.3,0.1-2,0.2C182.7,177.9,181.3,178.2,179.8,178.2z"/>
			<path class="st7" d="M189.3,170.8c1.4,0.1,2.7,0.5,3.9,1c1.3,0.5,2.4,1.3,3.5,2.1c0.5,0.4,1,0.9,1.5,1.4c0.4,0.5,0.9,1,1.3,1.6
				c0.8,1.1,1.3,2.4,1.7,3.7c-0.8-1.1-1.6-2.1-2.5-3.1c-0.9-1-1.8-1.8-2.8-2.6C194,173.3,191.7,172,189.3,170.8z"/>
		</g>
		<path class="st14" d="M137.6,186.2c0,0,8.4-15.9,18.9-9.1C154.9,169.9,140.2,173.4,137.6,186.2z"/>
		<path class="st14" d="M198.7,179.6c0,0-6.8-9-13.9-6.8C189.8,168.9,196.4,174.3,198.7,179.6z"/>
		<path class="st14" d="M207.5,168.8c0,0,9.1,13.7,3.5,32.4C215.4,197.9,217.5,177.6,207.5,168.8z"/>
		<path class="st14" d="M134.3,40.3c0,0,31.2-8.2,61.5,13C179.4,33.4,143.4,31.6,134.3,40.3z"/>
		<path class="st14" d="M112,229.4c0,0,10.8-1.5,19.4,8.9C126.8,229.1,117.9,225.7,112,229.4z"/>
		<path class="st14" d="M211.5,226.2c0,0,7.4-2,8.6,10.7C221.7,228.8,217.9,222.9,211.5,226.2z"/>
		<path class="st14" d="M222.1,98.7c0,0,17,22.9,1.7,40.9C234.2,131.1,236.1,114.4,222.1,98.7z"/>
		<g>
			<g>
				<path class="st26" d="M198.2,127c0.1,0.5-0.3,0.9-0.7,0.9c-0.5,0.1-0.9-0.3-0.9-0.7c-0.1-0.5,0.3-0.9,0.7-0.9
					C197.7,126.3,198.1,126.6,198.2,127z"/>
				<path class="st26" d="M201.3,123.5c0.1,0.5-0.3,0.9-0.7,0.9c-0.5,0.1-0.9-0.3-0.9-0.7c-0.1-0.5,0.3-0.9,0.7-0.9
					C200.9,122.7,201.3,123.1,201.3,123.5z"/>
				<path class="st26" d="M198.1,120c0.1,0.5-0.3,0.9-0.7,0.9c-0.5,0.1-0.9-0.3-0.9-0.7c-0.1-0.5,0.3-0.9,0.7-0.9
					C197.6,119.2,198,119.5,198.1,120z"/>
			</g>
			<path class="st27" d="M197.4,127.1c2.8-0.6,5.5-1.2,8.3-1.6c2.8-0.5,5.6-0.9,8.3-1.3c5.6-0.7,11.2-1.2,16.8-1.3
				c5.6-0.2,11.2,0.1,16.8,0.8c5.6,0.7,11.1,2.1,16.2,4.3c-2.5-1.3-5.2-2.3-7.9-3.1c-2.7-0.8-5.5-1.4-8.3-1.8
				c-5.6-0.9-11.3-1.1-16.9-1c-5.7,0.2-11.3,0.7-16.9,1.5C208.3,124.5,202.8,125.6,197.4,127.1z"/>
			<path class="st27" d="M200.5,123.6c3-1,6.1-2,9.2-2.8c3.1-0.9,6.2-1.6,9.3-2.3c6.3-1.4,12.6-2.5,19-3c6.4-0.6,12.8-0.7,19.2-0.1
				c6.4,0.6,12.7,2,18.6,4.6c-2.9-1.4-5.9-2.5-9-3.4c-3.1-0.8-6.3-1.4-9.5-1.8c-6.4-0.7-12.9-0.6-19.3-0.1c-6.4,0.6-12.8,1.7-19,3.2
				C212.7,119.4,206.5,121.3,200.5,123.6z"/>
			<path class="st27" d="M197.2,120.1c3-0.9,6-1.7,9-2.5c3-0.8,6.1-1.5,9.1-2.2c6.1-1.4,12.2-2.7,18.4-3.6c3.1-0.5,6.2-0.9,9.3-1.2
				c3.1-0.3,6.2-0.5,9.3-0.6c3.1-0.1,6.2,0,9.3,0.3c3.1,0.3,6.2,0.8,9.2,1.7c-7.5-3.9-12.6-2.9-18.5-2.6c-6.3,0-12.5,0.7-18.7,1.6
				c-6.2,1-12.3,2.3-18.4,3.8C209.2,116.3,203.1,118,197.2,120.1z"/>
		</g>
	</g>
</g>
<g>
	<path class="st34" d="M80.4,322.5c-0.9,1.7-1.8,2.5-2.7,2.5c-3.9,0-6.8-4.7-8.6-14.2c-1.1-6-1.7-11.9-1.7-17.7c0-0.7,0-1.6,0-2.6
		c0-1.1,0-2.4,0.1-3.8c0.1-1.4,0.1-2.7,0.1-3.8c0-1.1,0-2,0-2.7V279c-0.5,1.6-1.2,4-2,7.1c-0.9,3.1-2,7-3.4,11.6
		c-3.9,13-7.9,19.6-11.8,19.6c-4.8,0-8.3-6.6-10.4-19.8c-0.1-0.5-0.1-1.3-0.2-2.3c-0.1-1.1-0.3-2.4-0.5-4c-0.1-0.2-0.7-4.3-1.7-12.3
		c-0.6,1.5-1.7,4.9-3.4,10.2c-6.5,21.2-14.1,31.7-22.9,31.7c-3.2,0-6.1-1.7-8.8-5l1.8-1.2c1.8,0.4,3.3,0.7,4.6,0.9
		c1.2,0.2,2.2,0.3,2.9,0.3c1.7,0,3.5-0.9,5.4-2.6v0.1c1.5-1.1,2.9-2.9,4.2-5.2c3.5-6.3,6.7-13.9,9.4-23c3-9.7,4.5-17.8,4.5-24.3
		c0-3.3,1.2-4.9,3.6-4.9c1.4,0,3.6,1.1,6.6,3.4c-0.7,1.9-1.1,6.2-1.1,12.9c0,4.8,0.1,9.4,0.4,13.6c0.3,4.2,0.7,8.2,1.4,11.9
		c1.4,8.8,3,13.2,5,13.2c1.3,0,3.9-5.6,7.7-16.8c3.4-9.8,5.8-18.6,7.3-26.3c0-0.4,0-1.1,0-2.1c0-1,0.1-2.3,0.1-4
		c0.1-2.4,0.8-3.8,2-4.3c5.6,0,8.5,1.1,8.8,3.4c-1,2.2-1.9,8.1-2.7,17.7c-0.7,8.6-1.1,14.9-1.1,19c0,14.7,2.1,22.7,6.4,23.8
		L80.4,322.5L80.4,322.5z"/>
</g>
<g>
	<path id="_1" class="st34" d="M94.4,291c0,1.6-1,5.9-3,12.8c-1.4,4.8-2.4,7.8-2.8,8.9c-1.2,3-2.8,4.5-4.7,4.5
		c-3.6,0-5.4-3.3-5.4-9.8c0-2.2,0.2-5.6,0.6-10.1s0.6-7.8,0.6-10.1c0.7-0.8,1.6-1.2,2.5-1.2c2,0,3,0.7,3,2.2l-1.1,5.5
		c-0.5,2.7-0.9,5.2-1.2,7.5c-0.3,2.3-0.4,4.4-0.4,6.3c0,3.4,0.5,5.1,1.6,5.1c0.6,0,1.4-1.4,2.2-4.2l2.6-8.9c0.6-2,1.2-4.7,2-7.9
		c0.4-1.9,1.1-2.9,2-2.9C93.8,288.8,94.4,289.5,94.4,291L94.4,291z M87.4,267.3c0,2.9-1,4.3-2.9,4.3c-1.1,0-2.1-0.5-2.9-1.4
		c-0.8-1-1.3-2-1.3-3.2c0-0.8,0.4-1.6,1.2-2.5c0.8-0.9,1.5-1.3,2.3-1.3C86.2,263.1,87.4,264.5,87.4,267.3L87.4,267.3z"/>
</g>
<g>
	<path id="_2" class="st34" d="M106.8,289.3c1.1,0,1.6,0.8,1.6,2.4c0,0.4-0.1,1.3-0.4,2.5c-0.3,1.2-0.7,2.9-1.2,5
		c-1.2,4.8-2.2,8.3-3.1,10.4c-2.2,5.2-4.5,7.8-7.1,7.8c-5.1,0-7.6-4.5-7.6-13.4c0-3.9,0.6-8.1,1.7-12.5c1.5-5.5,3.4-8.3,5.8-8.3
		c1.1,0,2.1,0.7,3.3,2.1c1.1,1.4,1.7,2.7,1.7,3.7c0,2-0.8,3.1-2.3,3.1c-0.9,0-1.9-0.4-2.9-1.2c-1.9,3.1-2.8,8.5-2.8,16.3
		c0,4,0.8,6,2.5,6c2.8,0,5.5-6.1,8.2-18.2c0.1-0.4,0.2-0.9,0.4-1.5c0.1-0.6,0.3-1.4,0.5-2.2h-0.1C105.3,290,106,289.3,106.8,289.3
		L106.8,289.3z"/>
</g>
<g>
	<path id="_3" class="st34" d="M128.8,301.3c-0.2,0.7-0.5,1.6-0.8,2.7c-0.4,1.1-0.8,2.6-1.3,4.3c-2,5.9-4.3,8.8-7,8.8
		c-2.9,0-5-1.5-6.3-4.6c-0.1-0.1-0.7-2.2-1.7-6.2c-0.2,0.2-0.6,0.5-1.1,0.8c-0.5,0.4-1.1,0.8-2,1.3c-0.1,0.3-0.1,0.9-0.2,1.7
		s-0.2,1.9-0.3,3.3c0.4,1.1,0.6,2.1,0.6,2.9c0,1.4-0.7,2.1-2.2,2.1c-1.9,0-2.9-3.2-2.9-9.6c0-2.8,0.1-6.2,0.4-10.2
		c0.3-4,0.7-8.6,1.2-13.9c1.2-10.9,1.8-18.9,2-24c-0.1-0.3-0.1-0.6-0.1-0.9c0-0.3,0-0.6,0-0.9c0-2.8,0.9-4.2,2.7-4.2
		c1.1,0,1.9,0.4,2.6,1.3c0.7,0.8,1,1.8,1,2.9c0,1.6-0.6,5.2-1.9,10.6l-1.3,9.8c-0.3,2.7-0.6,5.3-0.9,7.7c-0.3,2.4-0.5,4.6-0.6,6.8
		c0.7-1.9,1.7-4,2.8-6.4c1.8-3.8,3.7-5.8,5.6-5.8c1.5,0,2.7,0.5,3.8,1.6c1,1.1,1.5,2.4,1.5,3.9c0,2.9-0.8,5.7-2.4,8.5
		c-0.2,0.4-0.7,1.2-1.3,2.2c-0.6,1.1-1.4,2.4-2.4,4.1c-0.1,0.6-0.1,1-0.1,1.4c0,0.4,0,0.7,0,1c0,1.7,0.2,3.4,0.7,5
		c0.6,2.4,1.5,3.6,2.7,3.6c1.8,0,4.3-6.3,7.6-18.9v0.1c0.1-0.6,0.2-1.1,0.3-1.7c0.1-0.6,0.2-1.1,0.3-1.7c0.5-1.4,1.2-2.1,2-2.1
		c1.1,0,1.6,0.7,1.6,2C131.2,292.6,130.4,296.1,128.8,301.3L128.8,301.3z M117.9,286.7c0-0.7-0.2-1-0.6-1c-0.9,0-2.5,2.8-4.6,8.5
		c-1.9,5-3,8-3.2,9.2c1.4-0.7,3.1-2.9,4.9-6.7C116.8,292.1,117.9,288.8,117.9,286.7L117.9,286.7z"/>
</g>
<g>
	<path id="_4" class="st34" d="M124.1,304.7c0.8-2.4,1.5-4.6,2-6.6c0.5-2,0.9-3.9,1.3-5.7c0-4.7,1.1-7,3.4-7c1.4,0,2.1,0.7,2.1,2
		v0.3L132,297c-0.2,2.5-0.4,4.6-0.6,6.4c-0.1,1.8-0.2,3.3-0.2,4.5c0,4.3,0.5,6.4,1.5,6.4c1,0,2.6-4.3,4.8-13v0.2
		c0.2-1.6,0.4-3.7,0.8-6.4c0.3-2.7,0.8-6.1,1.3-10.1c0.2-2.1,1.3-3.2,3.2-3.2h0.4c1.4,0,2,0.7,2,2c0,1.3-0.6,4.4-1.9,9.2
		c-0.5,2-0.7,6.5-0.7,13.7v4.5c0-0.4,0.1,2.3,0.3,7.9l0.1,2.9c0,0,0.3-0.1,0.9-0.3c0.6-0.2,1.1-0.3,1.5-0.3c1.9-0.6,3.3-0.8,4.2-0.8
		c3.2,0,4.8,1,4.8,3c0,0.4-0.2,0.9-0.5,1.4l-0.9,0.4c-2.1-0.4-3.8-0.7-5-0.7c-0.6,0-2.1,0.3-4.5,1c0,0.4,0,0.8,0,1.4
		c0,0.6,0.1,1.1,0.1,1.8c0,0.6,0.1,1.2,0.1,1.8c0,0.6,0,1,0,1.4c0,14.5-4.7,21.7-14,21.7c-2.9,0-5.4-1.1-7.4-3.3
		c-2.1-2.1-3.2-4.8-3.2-8.1c0-4.7,2.7-9.1,8.2-13.2c3.9-3,7.8-5,11.6-6c-0.1-2.2-0.1-4.2-0.2-6.1c-0.1-1.9-0.3-3.5-0.5-5
		c-0.9,2-1.5,3.3-2,3.9c-1.1,1.2-2.3,1.9-3.6,1.9c-3.4,0-5.4-2.2-6.1-6.7c-0.1-0.2-0.1-1-0.1-2.1c-1.9,5.5-3.7,8.2-5.4,8.2
		c-1.9,0-2.9-0.5-2.9-1.6c0-0.9,0.7-1.7,2-2.3C120.9,313.3,122.2,310.5,124.1,304.7L124.1,304.7z M139.3,327.2
		c-4,1.2-7.4,3.1-10.4,5.9c-3.5,3.2-5.2,6.6-5.2,10.2c0,1.7,0.5,3.3,1.6,4.7c1.1,1.4,2.3,2,3.8,2c3.5,0,6.2-2.1,8.1-6.4
		c1.4-3.4,2.1-7,2.1-11L139.3,327.2L139.3,327.2z"/>
</g>
<g>
	<path id="_5" class="st34" d="M222.6,268.5c0,2-1.7,4.9-5.2,8.6c-2.9,3-5.5,5.1-7.8,6.3c-4.3,2.3-8.2,4.2-11.6,5.7
		c-3.4,1.5-6.4,2.7-9,3.4c0.7,1.6,2,3.6,3.6,5.9c2.2,3,3.9,5.2,5.1,6.5c1.9,2.1,4.2,4,6.9,5.6c3.2,2,6,3,8.2,3
		c1.9-0.6,3-0.8,3.2-0.8c0.9,0,1.4,0.7,1.4,2c-0.2,0.1-0.7,0.4-1.5,0.9c-0.7,0.5-1.8,1-3.2,1.7c-5.2,0-10.5-2.1-15.7-6.4h0.1
		c-2.6-2.1-6.7-6.4-12.4-12.8c-1.7-2.4-2.6-3.5-2.9-3.5c-0.3,0-0.6,1.3-0.8,3.9c0,0.5,0,1.1,0,2c0,0.8-0.1,1.7-0.1,2.8
		c-0.1,1.1-0.1,2-0.1,2.8c0,0.8,0,1.5,0,2v0.3c0,1.4,0.1,2.9,0.3,4.6c0.2,1.7,0.4,3.5,0.7,5.5c-0.5,1.4-1.2,2.1-2.1,2.1
		c-1.3,0-2.4-0.8-3.2-2.5v0.1c-0.6-0.8-0.8-1.9-0.8-3.4V312c0-2.6,0-5.3,0.1-8.2c0.1-2.9,0.2-5.9,0.3-9.1c0.2-5.2,0.4-9.5,0.5-12.8
		c0.1-3.3,0.1-5.7,0.1-7.2c0-0.9,0.1-2.4,0.3-4.4c0.1-1,0.2-1.8,0.3-2.5c0.1-0.7,0.1-1.3,0.1-1.8c-0.8,0.2-2.8,1-5.9,2.4
		c-3,1.4-4.5,2.3-4.5,2.7c0-0.2,0.3,0,0.8,0.8c-0.9,0.9-1.6,1.3-2.1,1.3c-1.3,0-2-0.9-2-2.8c0-2.2,2.3-4.4,6.9-6.6l6.7-3.1
		c0-0.1,0-0.3,0.1-0.5v-2.8c0-1.1,0.1-2,0.3-2.7c2.1,0.4,3.5,0.8,4.3,1.3c0.7,0.5,1.3,1.3,1.7,2.4c10.6-1.9,17.8-2.8,21.6-2.8
		c4,0,7.8,1,11.3,3C220.6,261.1,222.6,264.3,222.6,268.5L222.6,268.5z M215.2,266.6c0-4.1-3.3-6.1-9.9-6.1c-5.5,0-12.7,1.3-21.6,3.8
		c-0.2,3.2-0.7,9-1.4,17.2c-0.2,2.2-0.4,4-0.5,5.3c-0.1,1.3-0.1,2.1-0.1,2.4c1.2-0.1,2.6-0.4,4.2-0.9c1.6-0.5,3.5-1,5.6-1.7
		c2-0.7,3.8-1.3,5.4-2c1.6-0.6,3-1.2,4.1-1.8c3.4-1.7,6.5-3.9,9.2-6.6C213.5,273,215.2,269.8,215.2,266.6L215.2,266.6z"/>
</g>
<g>
	<path id="_6" class="st34" d="M230.6,317.3c-2.1,0-3.8-1.5-5.2-4.5c-1.5,4-3.5,6.1-6,6.1c-3.7,0-5.5-4.1-5.5-12.4v-1.2
		c0-2.7,0.7-6.6,2-11.7c1.7-6.6,3.4-9.9,5.1-9.9c3,0,4.9,0.9,5.7,2.6l1.4,2.9l3.4,1.1c-2,6.5-3.1,12-3.1,16.5v0.8
		c0,3.7,0.6,5.5,1.7,5.5c1.6,0,3.9-7,7.2-21c0.5-1.8,1.2-2.7,2.1-2.7c1.1,0,1.6,0.7,1.6,2.2c0,2-1.1,6.5-3.3,13.6
		C235.2,313.2,232.9,317.3,230.6,317.3L230.6,317.3z M225.3,293.3l-0.9-1.4c-0.3-2.4-0.7-3.5-1.3-3.5c-0.4,0-1.1,1.2-1.9,3.6
		l-0.2,0.6c-0.1,0.3-0.3,0.9-0.6,1.9c-0.2,1-0.6,2.2-1,3.8c-0.9,3.5-1.4,7.8-1.4,13c0,2.2,0.5,3.4,1.5,3.6c0.9-0.7,1.9-2.9,3-6.5
		c0.5-1.6,0.9-3,1.2-4.2c0.3-1.2,0.5-2.2,0.7-3.1L225.3,293.3L225.3,293.3z"/>
</g>
<g>
	<path id="_7" class="st34" d="M264.8,273.7c-0.6,0.6-2.2,1.1-5,1.5c-2.5,0.4-4.3,0.7-5.2,0.7c-1.4,0-2.8,0-4.1,0s-2.5,0-3.7-0.1
		l-3.5-0.1c-0.7,4.7-1.2,8.8-1.5,12.4c-0.3,3.5-0.5,6.5-0.5,8.8c0,2.6,0,4.7,0,6.4c0,1.6,0.1,2.9,0.1,3.7c0.3,3.1,0.9,4.7,1.7,4.7
		c1.9,0,4.2-6,6.9-18c0.7-3.2,1.6-4.8,2.4-4.8c1.2,0,1.8,0.8,1.8,2.3c0,2.3-1.1,6.6-3.2,12.9c-2.7,8.3-5.4,12.4-8.2,12.4
		c-2.5,0-4.4-2.3-5.5-6.8c-0.6-2.4-0.9-5.3-0.9-8.6c0-1.1,0.2-3.7,0.6-7.9c0.4-4.2,0.9-10.1,1.6-17.5c-0.4-0.1-1.2-0.1-2.4-0.1
		c-1.2,0-2.9,0-5-0.1l-2.6,0.8c-0.6-0.7-1.3-1.2-2-1.5c-1-0.4-1.5-1-1.5-1.9c0-1,0.7-1.5,2-1.5c1.7,0,3.5,0,5.5-0.1
		c2-0.1,4.2-0.2,6.5-0.3V271c0,0.3,0,0,0-0.9c0-0.9,0.1-2.5,0.1-4.7l-0.4-1.8c0.4-1.1,1-1.6,2-1.6c0.8,0,2.3,0.7,4.5,2.1v2.5
		c-0.1,0.4-0.2,1-0.3,1.8c-0.2,0.7-0.4,1.6-0.6,2.7h1.8c1.2,0,2.2,0,3.2,0c0.9,0,1.7,0,2.4,0.1c0.4,0.1,1.7,0.1,3.9,0.1
		c2.2,0,5.4,0.1,9.5,0.2v1.5L264.8,273.7L264.8,273.7z"/>
</g>
<text id="_7_1_" transform="matrix(1 0 0 1 10.2901 317.2568)" class="st35 st36">Micky Rat</text>
</svg>
